<mxfile host="65bd71144e">
    <diagram id="zgDzmHNVkWISCl_m_uKc" name="Full-Adder">
        <mxGraphModel dx="1562" dy="600" grid="0" gridSize="5" guides="1" tooltips="1" connect="1" arrows="1" fold="1" page="1" pageScale="1" pageWidth="1169" pageHeight="827" background="#ffffff" math="0" shadow="0">
            <root>
                <mxCell id="0"/>
                <mxCell id="1" parent="0"/>
                <mxCell id="14" value="A" style="text;html=1;strokeColor=none;fillColor=none;align=right;verticalAlign=middle;whiteSpace=wrap;rounded=0;fontColor=#000000;fontFamily=CMU;fontSource=https%3A%2F%2Ffonts.googleapis.com%2Fcss%3Ffamily%3DCMU;" parent="1" vertex="1">
                    <mxGeometry x="125" y="45" width="60" height="30" as="geometry"/>
                </mxCell>
                <mxCell id="15" value="B" style="text;html=1;strokeColor=none;fillColor=none;align=right;verticalAlign=middle;whiteSpace=wrap;rounded=0;fontColor=#000000;fontFamily=CMU;fontSource=https%3A%2F%2Ffonts.googleapis.com%2Fcss%3Ffamily%3DCMU;" parent="1" vertex="1">
                    <mxGeometry x="125" y="77.5" width="60" height="25" as="geometry"/>
                </mxCell>
                <mxCell id="10" style="edgeStyle=elbowEdgeStyle;html=1;exitX=1;exitY=0.5;exitDx=0;exitDy=0;exitPerimeter=0;endArrow=none;endFill=0;strokeColor=#000000;entryX=0;entryY=0.25;entryDx=0;entryDy=0;entryPerimeter=0;" parent="1" source="2" target="23" edge="1">
                    <mxGeometry relative="1" as="geometry">
                        <mxPoint x="415" y="75" as="targetPoint"/>
                    </mxGeometry>
                </mxCell>
                <mxCell id="2" value="" style="verticalLabelPosition=bottom;shadow=0;dashed=0;align=center;html=1;verticalAlign=top;shape=mxgraph.electrical.logic_gates.logic_gate;operation=xor;fillColor=#FFFFFF;strokeColor=#000000;" parent="1" vertex="1">
                    <mxGeometry x="280" y="45" width="100" height="60" as="geometry"/>
                </mxCell>
                <mxCell id="3" value="" style="verticalLabelPosition=bottom;shadow=0;dashed=0;align=center;html=1;verticalAlign=top;shape=mxgraph.electrical.logic_gates.logic_gate;operation=and;fillColor=#FFFFFF;strokeColor=#000000;" parent="1" vertex="1">
                    <mxGeometry x="395" y="220" width="100" height="60" as="geometry"/>
                </mxCell>
                <mxCell id="6" style="edgeStyle=none;html=1;exitX=0.9;exitY=0.5;exitDx=0;exitDy=0;exitPerimeter=0;entryX=0;entryY=0.25;entryDx=0;entryDy=0;entryPerimeter=0;endArrow=none;endFill=0;strokeColor=#000000;" parent="1" source="4" target="2" edge="1">
                    <mxGeometry relative="1" as="geometry"/>
                </mxCell>
                <mxCell id="8" style="edgeStyle=elbowEdgeStyle;html=1;entryX=0;entryY=0.25;entryDx=0;entryDy=0;entryPerimeter=0;endArrow=none;endFill=0;exitX=0.9;exitY=0.5;exitDx=0;exitDy=0;exitPerimeter=0;strokeColor=#000000;" parent="1" source="4" target="3" edge="1">
                    <mxGeometry relative="1" as="geometry">
                        <mxPoint x="225" y="165" as="sourcePoint"/>
                        <Array as="points">
                            <mxPoint x="260" y="150"/>
                        </Array>
                    </mxGeometry>
                </mxCell>
                <mxCell id="4" value="" style="verticalLabelPosition=bottom;shadow=0;dashed=0;align=center;html=1;verticalAlign=top;shape=mxgraph.electrical.logic_gates.inverting_contact;fillColor=#FFFFFF;strokeColor=#000000;" parent="1" vertex="1">
                    <mxGeometry x="190" y="55" width="10" height="10" as="geometry"/>
                </mxCell>
                <mxCell id="7" style="edgeStyle=none;html=1;exitX=0.9;exitY=0.5;exitDx=0;exitDy=0;exitPerimeter=0;entryX=0;entryY=0.75;entryDx=0;entryDy=0;entryPerimeter=0;endArrow=none;endFill=0;strokeColor=#000000;" parent="1" source="5" target="2" edge="1">
                    <mxGeometry relative="1" as="geometry"/>
                </mxCell>
                <mxCell id="9" style="edgeStyle=elbowEdgeStyle;html=1;exitX=0.9;exitY=0.5;exitDx=0;exitDy=0;exitPerimeter=0;entryX=0;entryY=0.75;entryDx=0;entryDy=0;entryPerimeter=0;endArrow=none;endFill=0;strokeColor=#000000;" parent="1" source="5" target="3" edge="1">
                    <mxGeometry relative="1" as="geometry">
                        <Array as="points">
                            <mxPoint x="230" y="140"/>
                        </Array>
                    </mxGeometry>
                </mxCell>
                <mxCell id="5" value="" style="verticalLabelPosition=bottom;shadow=0;dashed=0;align=center;html=1;verticalAlign=top;shape=mxgraph.electrical.logic_gates.inverting_contact;fillColor=#FFFFFF;strokeColor=#000000;" parent="1" vertex="1">
                    <mxGeometry x="190" y="85" width="10" height="10" as="geometry"/>
                </mxCell>
                <mxCell id="16" value="XOR" style="text;html=1;strokeColor=none;fillColor=none;align=center;verticalAlign=middle;whiteSpace=wrap;rounded=0;fontColor=#000000;fontFamily=CMU;fontSource=https%3A%2F%2Ffonts.googleapis.com%2Fcss%3Ffamily%3DCMU;" parent="1" vertex="1">
                    <mxGeometry x="300" y="60" width="60" height="30" as="geometry"/>
                </mxCell>
                <mxCell id="17" value="AND" style="text;html=1;strokeColor=none;fillColor=none;align=center;verticalAlign=middle;whiteSpace=wrap;rounded=0;fontColor=#000000;fontFamily=CMU;fontSource=https%3A%2F%2Ffonts.googleapis.com%2Fcss%3Ffamily%3DCMU;" parent="1" vertex="1">
                    <mxGeometry x="415" y="235" width="60" height="30" as="geometry"/>
                </mxCell>
                <mxCell id="25" style="edgeStyle=elbowEdgeStyle;html=1;exitX=0.9;exitY=0.5;exitDx=0;exitDy=0;exitPerimeter=0;entryX=0;entryY=0.75;entryDx=0;entryDy=0;entryPerimeter=0;strokeColor=#000000;fontFamily=CMU;fontSource=https%3A%2F%2Ffonts.googleapis.com%2Fcss%3Ffamily%3DCMU;fontColor=#000000;endArrow=none;endFill=0;" parent="1" source="20" target="23" edge="1">
                    <mxGeometry relative="1" as="geometry"/>
                </mxCell>
                <mxCell id="20" value="" style="verticalLabelPosition=bottom;shadow=0;dashed=0;align=center;html=1;verticalAlign=top;shape=mxgraph.electrical.logic_gates.inverting_contact;fillColor=#FFFFFF;strokeColor=#000000;" parent="1" vertex="1">
                    <mxGeometry x="190" y="115" width="10" height="10" as="geometry"/>
                </mxCell>
                <mxCell id="22" value="CARRY&lt;sub&gt;in&lt;/sub&gt;" style="text;html=1;strokeColor=none;fillColor=none;align=right;verticalAlign=middle;whiteSpace=wrap;rounded=0;fontColor=#000000;fontFamily=CMU;fontSource=https%3A%2F%2Ffonts.googleapis.com%2Fcss%3Ffamily%3DCMU;" parent="1" vertex="1">
                    <mxGeometry x="130" y="105" width="60" height="30" as="geometry"/>
                </mxCell>
                <mxCell id="23" value="" style="verticalLabelPosition=bottom;shadow=0;dashed=0;align=center;html=1;verticalAlign=top;shape=mxgraph.electrical.logic_gates.logic_gate;operation=xor;fillColor=#FFFFFF;strokeColor=#000000;" parent="1" vertex="1">
                    <mxGeometry x="510" y="75" width="100" height="60" as="geometry"/>
                </mxCell>
                <mxCell id="24" value="XOR" style="text;html=1;strokeColor=none;fillColor=none;align=center;verticalAlign=middle;whiteSpace=wrap;rounded=0;fontColor=#000000;fontFamily=CMU;fontSource=https%3A%2F%2Ffonts.googleapis.com%2Fcss%3Ffamily%3DCMU;" parent="1" vertex="1">
                    <mxGeometry x="530" y="90" width="60" height="30" as="geometry"/>
                </mxCell>
                <mxCell id="28" style="edgeStyle=elbowEdgeStyle;html=1;exitX=0;exitY=0.25;exitDx=0;exitDy=0;exitPerimeter=0;entryX=1;entryY=0.5;entryDx=0;entryDy=0;entryPerimeter=0;strokeColor=#000000;fontFamily=CMU;fontSource=https%3A%2F%2Ffonts.googleapis.com%2Fcss%3Ffamily%3DCMU;fontColor=#000000;endArrow=none;endFill=0;" parent="1" source="26" target="2" edge="1">
                    <mxGeometry relative="1" as="geometry"/>
                </mxCell>
                <mxCell id="29" style="edgeStyle=elbowEdgeStyle;html=1;exitX=0;exitY=0.75;exitDx=0;exitDy=0;exitPerimeter=0;entryX=0.9;entryY=0.5;entryDx=0;entryDy=0;entryPerimeter=0;strokeColor=#000000;fontFamily=CMU;fontSource=https%3A%2F%2Ffonts.googleapis.com%2Fcss%3Ffamily%3DCMU;fontColor=#000000;endArrow=none;endFill=0;" parent="1" source="26" target="20" edge="1">
                    <mxGeometry relative="1" as="geometry">
                        <Array as="points">
                            <mxPoint x="370" y="155"/>
                        </Array>
                    </mxGeometry>
                </mxCell>
                <mxCell id="26" value="" style="verticalLabelPosition=bottom;shadow=0;dashed=0;align=center;html=1;verticalAlign=top;shape=mxgraph.electrical.logic_gates.logic_gate;operation=and;fillColor=#FFFFFF;strokeColor=#000000;" parent="1" vertex="1">
                    <mxGeometry x="395" y="150" width="100" height="60" as="geometry"/>
                </mxCell>
                <mxCell id="27" value="AND" style="text;html=1;strokeColor=none;fillColor=none;align=center;verticalAlign=middle;whiteSpace=wrap;rounded=0;fontColor=#000000;fontFamily=CMU;fontSource=https%3A%2F%2Ffonts.googleapis.com%2Fcss%3Ffamily%3DCMU;" parent="1" vertex="1">
                    <mxGeometry x="415" y="165" width="60" height="30" as="geometry"/>
                </mxCell>
                <mxCell id="33" style="edgeStyle=elbowEdgeStyle;html=1;exitX=0;exitY=0.25;exitDx=0;exitDy=0;exitPerimeter=0;entryX=1;entryY=0.5;entryDx=0;entryDy=0;entryPerimeter=0;strokeColor=#000000;fontFamily=CMU;fontSource=https%3A%2F%2Ffonts.googleapis.com%2Fcss%3Ffamily%3DCMU;fontColor=#000000;endArrow=none;endFill=0;" parent="1" target="26" edge="1">
                    <mxGeometry relative="1" as="geometry">
                        <mxPoint x="510" y="200" as="sourcePoint"/>
                    </mxGeometry>
                </mxCell>
                <mxCell id="34" style="edgeStyle=elbowEdgeStyle;html=1;exitX=0;exitY=0.75;exitDx=0;exitDy=0;exitPerimeter=0;entryX=1;entryY=0.5;entryDx=0;entryDy=0;entryPerimeter=0;strokeColor=#000000;fontFamily=CMU;fontSource=https%3A%2F%2Ffonts.googleapis.com%2Fcss%3Ffamily%3DCMU;fontColor=#000000;endArrow=none;endFill=0;" parent="1" target="3" edge="1">
                    <mxGeometry relative="1" as="geometry">
                        <mxPoint x="510" y="230" as="sourcePoint"/>
                    </mxGeometry>
                </mxCell>
                <mxCell id="35" value="" style="verticalLabelPosition=bottom;shadow=0;dashed=0;align=center;html=1;verticalAlign=top;shape=mxgraph.electrical.logic_gates.logic_gate;operation=or;strokeColor=#000000;fontFamily=CMU;fontSource=https%3A%2F%2Ffonts.googleapis.com%2Fcss%3Ffamily%3DCMU;fontColor=#000000;fillColor=#FFFFFF;" parent="1" vertex="1">
                    <mxGeometry x="510" y="185" width="100" height="60" as="geometry"/>
                </mxCell>
                <mxCell id="36" value="OR" style="text;html=1;strokeColor=none;fillColor=none;align=center;verticalAlign=middle;whiteSpace=wrap;rounded=0;fontColor=#000000;fontFamily=CMU;fontSource=https%3A%2F%2Ffonts.googleapis.com%2Fcss%3Ffamily%3DCMU;" parent="1" vertex="1">
                    <mxGeometry x="530" y="200" width="60" height="30" as="geometry"/>
                </mxCell>
                <mxCell id="37" value="" style="verticalLabelPosition=bottom;shadow=0;dashed=0;align=center;html=1;verticalAlign=top;shape=mxgraph.electrical.logic_gates.inverting_contact;strokeColor=#000000;fontFamily=CMU;fontSource=https%3A%2F%2Ffonts.googleapis.com%2Fcss%3Ffamily%3DCMU;fontColor=#000000;fillColor=#FFFFFF;" parent="1" vertex="1">
                    <mxGeometry x="610" y="210" width="10" height="10" as="geometry"/>
                </mxCell>
                <mxCell id="38" value="" style="verticalLabelPosition=bottom;shadow=0;dashed=0;align=center;html=1;verticalAlign=top;shape=mxgraph.electrical.logic_gates.inverting_contact;strokeColor=#000000;fontFamily=CMU;fontSource=https%3A%2F%2Ffonts.googleapis.com%2Fcss%3Ffamily%3DCMU;fontColor=#000000;fillColor=#FFFFFF;" parent="1" vertex="1">
                    <mxGeometry x="610" y="100" width="10" height="10" as="geometry"/>
                </mxCell>
                <mxCell id="40" value="CARRY&lt;span style=&quot;font-size: 10px;&quot;&gt;out&lt;/span&gt;" style="text;html=1;strokeColor=none;fillColor=none;align=left;verticalAlign=middle;whiteSpace=wrap;rounded=0;fontColor=#000000;fontFamily=CMU;fontSource=https%3A%2F%2Ffonts.googleapis.com%2Fcss%3Ffamily%3DCMU;" parent="1" vertex="1">
                    <mxGeometry x="625" y="200" width="60" height="30" as="geometry"/>
                </mxCell>
                <mxCell id="41" value="SUM" style="text;html=1;strokeColor=none;fillColor=none;align=left;verticalAlign=middle;whiteSpace=wrap;rounded=0;fontColor=#000000;fontFamily=CMU;fontSource=https%3A%2F%2Ffonts.googleapis.com%2Fcss%3Ffamily%3DCMU;" parent="1" vertex="1">
                    <mxGeometry x="625" y="90" width="60" height="30" as="geometry"/>
                </mxCell>
            </root>
        </mxGraphModel>
    </diagram>
    <diagram id="JFon0WZvRgPhgfyj1ciG" name="8-bit-adder">
        <mxGraphModel dx="1562" dy="600" grid="0" gridSize="5" guides="1" tooltips="1" connect="1" arrows="1" fold="1" page="1" pageScale="1" pageWidth="1169" pageHeight="827" background="#ffffff" math="0" shadow="0">
            <root>
                <mxCell id="0"/>
                <mxCell id="1" parent="0"/>
                <mxCell id="2c7sEg-d1-WkzC0QCvUQ-7" style="edgeStyle=elbowEdgeStyle;elbow=vertical;html=1;exitX=0.75;exitY=1;exitDx=0;exitDy=0;entryX=0.9;entryY=0.5;entryDx=0;entryDy=0;entryPerimeter=0;strokeColor=#000000;fontFamily=CMU;fontSource=https%3A%2F%2Ffonts.googleapis.com%2Fcss%3Ffamily%3DCMU;fontColor=#000000;endArrow=none;endFill=0;" parent="1" source="2c7sEg-d1-WkzC0QCvUQ-1" target="2c7sEg-d1-WkzC0QCvUQ-6" edge="1">
                    <mxGeometry relative="1" as="geometry"/>
                </mxCell>
                <mxCell id="2c7sEg-d1-WkzC0QCvUQ-36" style="edgeStyle=elbowEdgeStyle;html=1;exitX=0.75;exitY=0;exitDx=0;exitDy=0;strokeColor=#000000;fontFamily=CMU;fontSource=https%3A%2F%2Ffonts.googleapis.com%2Fcss%3Ffamily%3DCMU;fontColor=#000000;endArrow=none;endFill=0;elbow=vertical;" parent="1" source="2c7sEg-d1-WkzC0QCvUQ-1" edge="1">
                    <mxGeometry relative="1" as="geometry">
                        <mxPoint x="280" y="200" as="targetPoint"/>
                        <Array as="points">
                            <mxPoint x="260" y="90"/>
                        </Array>
                    </mxGeometry>
                </mxCell>
                <mxCell id="2c7sEg-d1-WkzC0QCvUQ-1" value="" style="rounded=0;whiteSpace=wrap;html=1;fillColor=#FFFFFF;strokeColor=#000000;" parent="1" vertex="1">
                    <mxGeometry x="180" y="100" width="80" height="100" as="geometry"/>
                </mxCell>
                <mxCell id="2c7sEg-d1-WkzC0QCvUQ-2" value="&lt;font color=&quot;#000000&quot;&gt;HALF&lt;br&gt;ADDER&lt;/font&gt;" style="text;html=1;strokeColor=none;fillColor=none;align=center;verticalAlign=middle;whiteSpace=wrap;rounded=0;fontFamily=CMU;fontSource=https%3A%2F%2Ffonts.googleapis.com%2Fcss%3Ffamily%3DCMU;" parent="1" vertex="1">
                    <mxGeometry x="190" y="135" width="60" height="30" as="geometry"/>
                </mxCell>
                <mxCell id="2c7sEg-d1-WkzC0QCvUQ-5" style="edgeStyle=elbowEdgeStyle;html=1;exitX=0.9;exitY=0.5;exitDx=0;exitDy=0;exitPerimeter=0;entryX=0.5;entryY=1;entryDx=0;entryDy=0;fontFamily=CMU;fontSource=https%3A%2F%2Ffonts.googleapis.com%2Fcss%3Ffamily%3DCMU;fontColor=#000000;endArrow=none;endFill=0;elbow=vertical;strokeColor=#000000;" parent="1" source="2c7sEg-d1-WkzC0QCvUQ-3" target="2c7sEg-d1-WkzC0QCvUQ-1" edge="1">
                    <mxGeometry relative="1" as="geometry"/>
                </mxCell>
                <mxCell id="2c7sEg-d1-WkzC0QCvUQ-3" value="" style="verticalLabelPosition=bottom;shadow=0;dashed=0;align=center;html=1;verticalAlign=top;shape=mxgraph.electrical.logic_gates.inverting_contact;strokeColor=#000000;fontFamily=CMU;fontSource=https%3A%2F%2Ffonts.googleapis.com%2Fcss%3Ffamily%3DCMU;fontColor=#000000;fillColor=#FFFFFF;portConstraintRotation=0;rotation=-90;" parent="1" vertex="1">
                    <mxGeometry x="215" y="241" width="10" height="10" as="geometry"/>
                </mxCell>
                <mxCell id="2c7sEg-d1-WkzC0QCvUQ-6" value="" style="verticalLabelPosition=bottom;shadow=0;dashed=0;align=center;html=1;verticalAlign=top;shape=mxgraph.electrical.logic_gates.inverting_contact;strokeColor=#000000;fontFamily=CMU;fontSource=https%3A%2F%2Ffonts.googleapis.com%2Fcss%3Ffamily%3DCMU;fontColor=#000000;fillColor=#FFFFFF;portConstraintRotation=0;rotation=-90;" parent="1" vertex="1">
                    <mxGeometry x="234.5" y="241" width="10" height="10" as="geometry"/>
                </mxCell>
                <mxCell id="2c7sEg-d1-WkzC0QCvUQ-9" value="A1" style="text;html=1;strokeColor=none;fillColor=none;align=center;verticalAlign=middle;whiteSpace=wrap;rounded=0;fontFamily=CMU;fontSource=https%3A%2F%2Ffonts.googleapis.com%2Fcss%3Ffamily%3DCMU;fontColor=#000000;" parent="1" vertex="1">
                    <mxGeometry x="211.5" y="251" width="17" height="18" as="geometry"/>
                </mxCell>
                <mxCell id="2c7sEg-d1-WkzC0QCvUQ-10" value="B1" style="text;html=1;strokeColor=none;fillColor=none;align=center;verticalAlign=middle;whiteSpace=wrap;rounded=0;fontFamily=CMU;fontSource=https%3A%2F%2Ffonts.googleapis.com%2Fcss%3Ffamily%3DCMU;fontColor=#000000;" parent="1" vertex="1">
                    <mxGeometry x="231" y="251" width="17" height="18" as="geometry"/>
                </mxCell>
                <mxCell id="2c7sEg-d1-WkzC0QCvUQ-12" style="edgeStyle=elbowEdgeStyle;elbow=vertical;html=1;exitX=0.1;exitY=0.5;exitDx=0;exitDy=0;exitPerimeter=0;entryX=0.25;entryY=0;entryDx=0;entryDy=0;strokeColor=#000000;fontFamily=CMU;fontSource=https%3A%2F%2Ffonts.googleapis.com%2Fcss%3Ffamily%3DCMU;fontColor=#000000;endArrow=none;endFill=0;" parent="1" source="2c7sEg-d1-WkzC0QCvUQ-11" target="2c7sEg-d1-WkzC0QCvUQ-1" edge="1">
                    <mxGeometry relative="1" as="geometry"/>
                </mxCell>
                <mxCell id="2c7sEg-d1-WkzC0QCvUQ-11" value="" style="verticalLabelPosition=bottom;shadow=0;dashed=0;align=center;html=1;verticalAlign=top;shape=mxgraph.electrical.logic_gates.inverting_contact;strokeColor=#000000;fontFamily=CMU;fontSource=https%3A%2F%2Ffonts.googleapis.com%2Fcss%3Ffamily%3DCMU;fontColor=#000000;fillColor=#FFFFFF;portConstraintRotation=0;rotation=-90;" parent="1" vertex="1">
                    <mxGeometry x="195" y="50" width="10" height="10" as="geometry"/>
                </mxCell>
                <mxCell id="2c7sEg-d1-WkzC0QCvUQ-13" value="S1" style="text;html=1;strokeColor=none;fillColor=none;align=center;verticalAlign=middle;whiteSpace=wrap;rounded=0;fontFamily=CMU;fontSource=https%3A%2F%2Ffonts.googleapis.com%2Fcss%3Ffamily%3DCMU;fontColor=#000000;" parent="1" vertex="1">
                    <mxGeometry x="191.5" y="32" width="17" height="18" as="geometry"/>
                </mxCell>
                <mxCell id="2c7sEg-d1-WkzC0QCvUQ-25" style="edgeStyle=elbowEdgeStyle;elbow=vertical;html=1;exitX=0.75;exitY=1;exitDx=0;exitDy=0;entryX=0.9;entryY=0.5;entryDx=0;entryDy=0;entryPerimeter=0;strokeColor=#000000;fontFamily=CMU;fontSource=https%3A%2F%2Ffonts.googleapis.com%2Fcss%3Ffamily%3DCMU;fontColor=#000000;endArrow=none;endFill=0;" parent="1" source="2c7sEg-d1-WkzC0QCvUQ-26" target="2c7sEg-d1-WkzC0QCvUQ-30" edge="1">
                    <mxGeometry relative="1" as="geometry"/>
                </mxCell>
                <mxCell id="2c7sEg-d1-WkzC0QCvUQ-37" style="edgeStyle=elbowEdgeStyle;html=1;exitX=0.25;exitY=1;exitDx=0;exitDy=0;strokeColor=#000000;fontFamily=CMU;fontSource=https%3A%2F%2Ffonts.googleapis.com%2Fcss%3Ffamily%3DCMU;fontColor=#000000;endArrow=none;endFill=0;" parent="1" source="2c7sEg-d1-WkzC0QCvUQ-26" edge="1">
                    <mxGeometry relative="1" as="geometry">
                        <mxPoint x="295" y="210" as="targetPoint"/>
                        <Array as="points">
                            <mxPoint x="320" y="205"/>
                        </Array>
                    </mxGeometry>
                </mxCell>
                <mxCell id="2c7sEg-d1-WkzC0QCvUQ-26" value="" style="rounded=0;whiteSpace=wrap;html=1;fillColor=#FFFFFF;strokeColor=#000000;" parent="1" vertex="1">
                    <mxGeometry x="300" y="99.5" width="80" height="100" as="geometry"/>
                </mxCell>
                <mxCell id="2c7sEg-d1-WkzC0QCvUQ-27" value="&lt;font color=&quot;#000000&quot;&gt;FULL&lt;br&gt;ADDER&lt;/font&gt;" style="text;html=1;strokeColor=none;fillColor=none;align=center;verticalAlign=middle;whiteSpace=wrap;rounded=0;fontFamily=CMU;fontSource=https%3A%2F%2Ffonts.googleapis.com%2Fcss%3Ffamily%3DCMU;" parent="1" vertex="1">
                    <mxGeometry x="310" y="134.5" width="60" height="30" as="geometry"/>
                </mxCell>
                <mxCell id="2c7sEg-d1-WkzC0QCvUQ-28" style="edgeStyle=elbowEdgeStyle;html=1;exitX=0.9;exitY=0.5;exitDx=0;exitDy=0;exitPerimeter=0;entryX=0.5;entryY=1;entryDx=0;entryDy=0;fontFamily=CMU;fontSource=https%3A%2F%2Ffonts.googleapis.com%2Fcss%3Ffamily%3DCMU;fontColor=#000000;endArrow=none;endFill=0;elbow=vertical;strokeColor=#000000;" parent="1" source="2c7sEg-d1-WkzC0QCvUQ-29" target="2c7sEg-d1-WkzC0QCvUQ-26" edge="1">
                    <mxGeometry relative="1" as="geometry"/>
                </mxCell>
                <mxCell id="2c7sEg-d1-WkzC0QCvUQ-29" value="" style="verticalLabelPosition=bottom;shadow=0;dashed=0;align=center;html=1;verticalAlign=top;shape=mxgraph.electrical.logic_gates.inverting_contact;strokeColor=#000000;fontFamily=CMU;fontSource=https%3A%2F%2Ffonts.googleapis.com%2Fcss%3Ffamily%3DCMU;fontColor=#000000;fillColor=#FFFFFF;portConstraintRotation=0;rotation=-90;" parent="1" vertex="1">
                    <mxGeometry x="335" y="240.5" width="10" height="10" as="geometry"/>
                </mxCell>
                <mxCell id="2c7sEg-d1-WkzC0QCvUQ-30" value="" style="verticalLabelPosition=bottom;shadow=0;dashed=0;align=center;html=1;verticalAlign=top;shape=mxgraph.electrical.logic_gates.inverting_contact;strokeColor=#000000;fontFamily=CMU;fontSource=https%3A%2F%2Ffonts.googleapis.com%2Fcss%3Ffamily%3DCMU;fontColor=#000000;fillColor=#FFFFFF;portConstraintRotation=0;rotation=-90;" parent="1" vertex="1">
                    <mxGeometry x="354.5" y="240.5" width="10" height="10" as="geometry"/>
                </mxCell>
                <mxCell id="2c7sEg-d1-WkzC0QCvUQ-31" value="A2" style="text;html=1;strokeColor=none;fillColor=none;align=center;verticalAlign=middle;whiteSpace=wrap;rounded=0;fontFamily=CMU;fontSource=https%3A%2F%2Ffonts.googleapis.com%2Fcss%3Ffamily%3DCMU;fontColor=#000000;" parent="1" vertex="1">
                    <mxGeometry x="331.5" y="250.5" width="17" height="18" as="geometry"/>
                </mxCell>
                <mxCell id="2c7sEg-d1-WkzC0QCvUQ-32" value="B2" style="text;html=1;strokeColor=none;fillColor=none;align=center;verticalAlign=middle;whiteSpace=wrap;rounded=0;fontFamily=CMU;fontSource=https%3A%2F%2Ffonts.googleapis.com%2Fcss%3Ffamily%3DCMU;fontColor=#000000;" parent="1" vertex="1">
                    <mxGeometry x="351" y="250.5" width="17" height="18" as="geometry"/>
                </mxCell>
                <mxCell id="2c7sEg-d1-WkzC0QCvUQ-33" style="edgeStyle=elbowEdgeStyle;elbow=vertical;html=1;exitX=0.1;exitY=0.5;exitDx=0;exitDy=0;exitPerimeter=0;entryX=0.25;entryY=0;entryDx=0;entryDy=0;strokeColor=#000000;fontFamily=CMU;fontSource=https%3A%2F%2Ffonts.googleapis.com%2Fcss%3Ffamily%3DCMU;fontColor=#000000;endArrow=none;endFill=0;" parent="1" source="2c7sEg-d1-WkzC0QCvUQ-34" target="2c7sEg-d1-WkzC0QCvUQ-26" edge="1">
                    <mxGeometry relative="1" as="geometry"/>
                </mxCell>
                <mxCell id="2c7sEg-d1-WkzC0QCvUQ-34" value="" style="verticalLabelPosition=bottom;shadow=0;dashed=0;align=center;html=1;verticalAlign=top;shape=mxgraph.electrical.logic_gates.inverting_contact;strokeColor=#000000;fontFamily=CMU;fontSource=https%3A%2F%2Ffonts.googleapis.com%2Fcss%3Ffamily%3DCMU;fontColor=#000000;fillColor=#FFFFFF;portConstraintRotation=0;rotation=-90;" parent="1" vertex="1">
                    <mxGeometry x="315" y="49.5" width="10" height="10" as="geometry"/>
                </mxCell>
                <mxCell id="2c7sEg-d1-WkzC0QCvUQ-35" value="S2" style="text;html=1;strokeColor=none;fillColor=none;align=center;verticalAlign=middle;whiteSpace=wrap;rounded=0;fontFamily=CMU;fontSource=https%3A%2F%2Ffonts.googleapis.com%2Fcss%3Ffamily%3DCMU;fontColor=#000000;" parent="1" vertex="1">
                    <mxGeometry x="311.5" y="31.5" width="17" height="18" as="geometry"/>
                </mxCell>
                <mxCell id="2c7sEg-d1-WkzC0QCvUQ-38" value="" style="endArrow=none;html=1;strokeColor=#000000;fontFamily=CMU;fontSource=https%3A%2F%2Ffonts.googleapis.com%2Fcss%3Ffamily%3DCMU;fontColor=#000000;edgeStyle=elbowEdgeStyle;elbow=vertical;" parent="1" edge="1">
                    <mxGeometry width="50" height="50" relative="1" as="geometry">
                        <mxPoint x="295" y="210" as="sourcePoint"/>
                        <mxPoint x="280" y="200" as="targetPoint"/>
                        <Array as="points">
                            <mxPoint x="290" y="210"/>
                        </Array>
                    </mxGeometry>
                </mxCell>
                <mxCell id="2c7sEg-d1-WkzC0QCvUQ-39" style="edgeStyle=elbowEdgeStyle;html=1;exitX=0.75;exitY=0;exitDx=0;exitDy=0;strokeColor=#000000;fontFamily=CMU;fontSource=https%3A%2F%2Ffonts.googleapis.com%2Fcss%3Ffamily%3DCMU;fontColor=#000000;endArrow=none;endFill=0;elbow=vertical;" parent="1" edge="1">
                    <mxGeometry relative="1" as="geometry">
                        <mxPoint x="360" y="99.5" as="sourcePoint"/>
                        <mxPoint x="400" y="199.5" as="targetPoint"/>
                        <Array as="points">
                            <mxPoint x="380" y="89.5"/>
                        </Array>
                    </mxGeometry>
                </mxCell>
                <mxCell id="2c7sEg-d1-WkzC0QCvUQ-40" style="edgeStyle=elbowEdgeStyle;elbow=vertical;html=1;exitX=0.75;exitY=1;exitDx=0;exitDy=0;entryX=0.9;entryY=0.5;entryDx=0;entryDy=0;entryPerimeter=0;strokeColor=#000000;fontFamily=CMU;fontSource=https%3A%2F%2Ffonts.googleapis.com%2Fcss%3Ffamily%3DCMU;fontColor=#000000;endArrow=none;endFill=0;" parent="1" source="2c7sEg-d1-WkzC0QCvUQ-42" target="2c7sEg-d1-WkzC0QCvUQ-46" edge="1">
                    <mxGeometry relative="1" as="geometry"/>
                </mxCell>
                <mxCell id="2c7sEg-d1-WkzC0QCvUQ-41" style="edgeStyle=elbowEdgeStyle;html=1;exitX=0.25;exitY=1;exitDx=0;exitDy=0;strokeColor=#000000;fontFamily=CMU;fontSource=https%3A%2F%2Ffonts.googleapis.com%2Fcss%3Ffamily%3DCMU;fontColor=#000000;endArrow=none;endFill=0;" parent="1" source="2c7sEg-d1-WkzC0QCvUQ-42" edge="1">
                    <mxGeometry relative="1" as="geometry">
                        <mxPoint x="415" y="209.5" as="targetPoint"/>
                        <Array as="points">
                            <mxPoint x="440" y="204.5"/>
                        </Array>
                    </mxGeometry>
                </mxCell>
                <mxCell id="2c7sEg-d1-WkzC0QCvUQ-42" value="" style="rounded=0;whiteSpace=wrap;html=1;fillColor=#FFFFFF;strokeColor=#000000;" parent="1" vertex="1">
                    <mxGeometry x="420" y="99" width="80" height="100" as="geometry"/>
                </mxCell>
                <mxCell id="2c7sEg-d1-WkzC0QCvUQ-43" value="&lt;font color=&quot;#000000&quot;&gt;FULL&lt;br&gt;ADDER&lt;/font&gt;" style="text;html=1;strokeColor=none;fillColor=none;align=center;verticalAlign=middle;whiteSpace=wrap;rounded=0;fontFamily=CMU;fontSource=https%3A%2F%2Ffonts.googleapis.com%2Fcss%3Ffamily%3DCMU;" parent="1" vertex="1">
                    <mxGeometry x="430" y="134" width="60" height="30" as="geometry"/>
                </mxCell>
                <mxCell id="2c7sEg-d1-WkzC0QCvUQ-44" style="edgeStyle=elbowEdgeStyle;html=1;exitX=0.9;exitY=0.5;exitDx=0;exitDy=0;exitPerimeter=0;entryX=0.5;entryY=1;entryDx=0;entryDy=0;fontFamily=CMU;fontSource=https%3A%2F%2Ffonts.googleapis.com%2Fcss%3Ffamily%3DCMU;fontColor=#000000;endArrow=none;endFill=0;elbow=vertical;strokeColor=#000000;" parent="1" source="2c7sEg-d1-WkzC0QCvUQ-45" target="2c7sEg-d1-WkzC0QCvUQ-42" edge="1">
                    <mxGeometry relative="1" as="geometry"/>
                </mxCell>
                <mxCell id="2c7sEg-d1-WkzC0QCvUQ-45" value="" style="verticalLabelPosition=bottom;shadow=0;dashed=0;align=center;html=1;verticalAlign=top;shape=mxgraph.electrical.logic_gates.inverting_contact;strokeColor=#000000;fontFamily=CMU;fontSource=https%3A%2F%2Ffonts.googleapis.com%2Fcss%3Ffamily%3DCMU;fontColor=#000000;fillColor=#FFFFFF;portConstraintRotation=0;rotation=-90;" parent="1" vertex="1">
                    <mxGeometry x="455" y="240" width="10" height="10" as="geometry"/>
                </mxCell>
                <mxCell id="2c7sEg-d1-WkzC0QCvUQ-46" value="" style="verticalLabelPosition=bottom;shadow=0;dashed=0;align=center;html=1;verticalAlign=top;shape=mxgraph.electrical.logic_gates.inverting_contact;strokeColor=#000000;fontFamily=CMU;fontSource=https%3A%2F%2Ffonts.googleapis.com%2Fcss%3Ffamily%3DCMU;fontColor=#000000;fillColor=#FFFFFF;portConstraintRotation=0;rotation=-90;" parent="1" vertex="1">
                    <mxGeometry x="474.5" y="240" width="10" height="10" as="geometry"/>
                </mxCell>
                <mxCell id="2c7sEg-d1-WkzC0QCvUQ-47" value="A3" style="text;html=1;strokeColor=none;fillColor=none;align=center;verticalAlign=middle;whiteSpace=wrap;rounded=0;fontFamily=CMU;fontSource=https%3A%2F%2Ffonts.googleapis.com%2Fcss%3Ffamily%3DCMU;fontColor=#000000;" parent="1" vertex="1">
                    <mxGeometry x="451.5" y="250" width="17" height="18" as="geometry"/>
                </mxCell>
                <mxCell id="2c7sEg-d1-WkzC0QCvUQ-48" value="B3" style="text;html=1;strokeColor=none;fillColor=none;align=center;verticalAlign=middle;whiteSpace=wrap;rounded=0;fontFamily=CMU;fontSource=https%3A%2F%2Ffonts.googleapis.com%2Fcss%3Ffamily%3DCMU;fontColor=#000000;" parent="1" vertex="1">
                    <mxGeometry x="471" y="250" width="17" height="18" as="geometry"/>
                </mxCell>
                <mxCell id="2c7sEg-d1-WkzC0QCvUQ-49" style="edgeStyle=elbowEdgeStyle;elbow=vertical;html=1;exitX=0.1;exitY=0.5;exitDx=0;exitDy=0;exitPerimeter=0;entryX=0.25;entryY=0;entryDx=0;entryDy=0;strokeColor=#000000;fontFamily=CMU;fontSource=https%3A%2F%2Ffonts.googleapis.com%2Fcss%3Ffamily%3DCMU;fontColor=#000000;endArrow=none;endFill=0;" parent="1" source="2c7sEg-d1-WkzC0QCvUQ-50" target="2c7sEg-d1-WkzC0QCvUQ-42" edge="1">
                    <mxGeometry relative="1" as="geometry"/>
                </mxCell>
                <mxCell id="2c7sEg-d1-WkzC0QCvUQ-50" value="" style="verticalLabelPosition=bottom;shadow=0;dashed=0;align=center;html=1;verticalAlign=top;shape=mxgraph.electrical.logic_gates.inverting_contact;strokeColor=#000000;fontFamily=CMU;fontSource=https%3A%2F%2Ffonts.googleapis.com%2Fcss%3Ffamily%3DCMU;fontColor=#000000;fillColor=#FFFFFF;portConstraintRotation=0;rotation=-90;" parent="1" vertex="1">
                    <mxGeometry x="435" y="49" width="10" height="10" as="geometry"/>
                </mxCell>
                <mxCell id="2c7sEg-d1-WkzC0QCvUQ-51" value="S3" style="text;html=1;strokeColor=none;fillColor=none;align=center;verticalAlign=middle;whiteSpace=wrap;rounded=0;fontFamily=CMU;fontSource=https%3A%2F%2Ffonts.googleapis.com%2Fcss%3Ffamily%3DCMU;fontColor=#000000;" parent="1" vertex="1">
                    <mxGeometry x="431.5" y="31" width="17" height="18" as="geometry"/>
                </mxCell>
                <mxCell id="2c7sEg-d1-WkzC0QCvUQ-52" value="" style="endArrow=none;html=1;strokeColor=#000000;fontFamily=CMU;fontSource=https%3A%2F%2Ffonts.googleapis.com%2Fcss%3Ffamily%3DCMU;fontColor=#000000;edgeStyle=elbowEdgeStyle;elbow=vertical;" parent="1" edge="1">
                    <mxGeometry width="50" height="50" relative="1" as="geometry">
                        <mxPoint x="415" y="209.5" as="sourcePoint"/>
                        <mxPoint x="400" y="199.5" as="targetPoint"/>
                        <Array as="points">
                            <mxPoint x="410" y="209.5"/>
                        </Array>
                    </mxGeometry>
                </mxCell>
                <mxCell id="2c7sEg-d1-WkzC0QCvUQ-53" style="edgeStyle=elbowEdgeStyle;html=1;exitX=0.75;exitY=0;exitDx=0;exitDy=0;strokeColor=#000000;fontFamily=CMU;fontSource=https%3A%2F%2Ffonts.googleapis.com%2Fcss%3Ffamily%3DCMU;fontColor=#000000;endArrow=none;endFill=0;elbow=vertical;" parent="1" edge="1">
                    <mxGeometry relative="1" as="geometry">
                        <mxPoint x="480.0000000000001" y="99.49999999999994" as="sourcePoint"/>
                        <mxPoint x="520.0000000000001" y="199.5" as="targetPoint"/>
                        <Array as="points">
                            <mxPoint x="500" y="89.5"/>
                        </Array>
                    </mxGeometry>
                </mxCell>
                <mxCell id="2c7sEg-d1-WkzC0QCvUQ-54" style="edgeStyle=elbowEdgeStyle;elbow=vertical;html=1;exitX=0.75;exitY=1;exitDx=0;exitDy=0;entryX=0.9;entryY=0.5;entryDx=0;entryDy=0;entryPerimeter=0;strokeColor=#000000;fontFamily=CMU;fontSource=https%3A%2F%2Ffonts.googleapis.com%2Fcss%3Ffamily%3DCMU;fontColor=#000000;endArrow=none;endFill=0;" parent="1" source="2c7sEg-d1-WkzC0QCvUQ-56" target="2c7sEg-d1-WkzC0QCvUQ-60" edge="1">
                    <mxGeometry relative="1" as="geometry"/>
                </mxCell>
                <mxCell id="2c7sEg-d1-WkzC0QCvUQ-55" style="edgeStyle=elbowEdgeStyle;html=1;exitX=0.25;exitY=1;exitDx=0;exitDy=0;strokeColor=#000000;fontFamily=CMU;fontSource=https%3A%2F%2Ffonts.googleapis.com%2Fcss%3Ffamily%3DCMU;fontColor=#000000;endArrow=none;endFill=0;" parent="1" source="2c7sEg-d1-WkzC0QCvUQ-56" edge="1">
                    <mxGeometry relative="1" as="geometry">
                        <mxPoint x="535.0000000000001" y="209.5" as="targetPoint"/>
                        <Array as="points">
                            <mxPoint x="560" y="204.5"/>
                        </Array>
                    </mxGeometry>
                </mxCell>
                <mxCell id="2c7sEg-d1-WkzC0QCvUQ-56" value="" style="rounded=0;whiteSpace=wrap;html=1;fillColor=#FFFFFF;strokeColor=#000000;" parent="1" vertex="1">
                    <mxGeometry x="540" y="99" width="80" height="100" as="geometry"/>
                </mxCell>
                <mxCell id="2c7sEg-d1-WkzC0QCvUQ-57" value="&lt;font color=&quot;#000000&quot;&gt;FULL&lt;br&gt;ADDER&lt;/font&gt;" style="text;html=1;strokeColor=none;fillColor=none;align=center;verticalAlign=middle;whiteSpace=wrap;rounded=0;fontFamily=CMU;fontSource=https%3A%2F%2Ffonts.googleapis.com%2Fcss%3Ffamily%3DCMU;" parent="1" vertex="1">
                    <mxGeometry x="550" y="134" width="60" height="30" as="geometry"/>
                </mxCell>
                <mxCell id="2c7sEg-d1-WkzC0QCvUQ-58" style="edgeStyle=elbowEdgeStyle;html=1;exitX=0.9;exitY=0.5;exitDx=0;exitDy=0;exitPerimeter=0;entryX=0.5;entryY=1;entryDx=0;entryDy=0;fontFamily=CMU;fontSource=https%3A%2F%2Ffonts.googleapis.com%2Fcss%3Ffamily%3DCMU;fontColor=#000000;endArrow=none;endFill=0;elbow=vertical;strokeColor=#000000;" parent="1" source="2c7sEg-d1-WkzC0QCvUQ-59" target="2c7sEg-d1-WkzC0QCvUQ-56" edge="1">
                    <mxGeometry relative="1" as="geometry"/>
                </mxCell>
                <mxCell id="2c7sEg-d1-WkzC0QCvUQ-59" value="" style="verticalLabelPosition=bottom;shadow=0;dashed=0;align=center;html=1;verticalAlign=top;shape=mxgraph.electrical.logic_gates.inverting_contact;strokeColor=#000000;fontFamily=CMU;fontSource=https%3A%2F%2Ffonts.googleapis.com%2Fcss%3Ffamily%3DCMU;fontColor=#000000;fillColor=#FFFFFF;portConstraintRotation=0;rotation=-90;" parent="1" vertex="1">
                    <mxGeometry x="575" y="240" width="10" height="10" as="geometry"/>
                </mxCell>
                <mxCell id="2c7sEg-d1-WkzC0QCvUQ-60" value="" style="verticalLabelPosition=bottom;shadow=0;dashed=0;align=center;html=1;verticalAlign=top;shape=mxgraph.electrical.logic_gates.inverting_contact;strokeColor=#000000;fontFamily=CMU;fontSource=https%3A%2F%2Ffonts.googleapis.com%2Fcss%3Ffamily%3DCMU;fontColor=#000000;fillColor=#FFFFFF;portConstraintRotation=0;rotation=-90;" parent="1" vertex="1">
                    <mxGeometry x="594.5" y="240" width="10" height="10" as="geometry"/>
                </mxCell>
                <mxCell id="2c7sEg-d1-WkzC0QCvUQ-61" value="A4" style="text;html=1;strokeColor=none;fillColor=none;align=center;verticalAlign=middle;whiteSpace=wrap;rounded=0;fontFamily=CMU;fontSource=https%3A%2F%2Ffonts.googleapis.com%2Fcss%3Ffamily%3DCMU;fontColor=#000000;" parent="1" vertex="1">
                    <mxGeometry x="571.5" y="250" width="17" height="18" as="geometry"/>
                </mxCell>
                <mxCell id="2c7sEg-d1-WkzC0QCvUQ-62" value="B4" style="text;html=1;strokeColor=none;fillColor=none;align=center;verticalAlign=middle;whiteSpace=wrap;rounded=0;fontFamily=CMU;fontSource=https%3A%2F%2Ffonts.googleapis.com%2Fcss%3Ffamily%3DCMU;fontColor=#000000;" parent="1" vertex="1">
                    <mxGeometry x="591" y="250" width="17" height="18" as="geometry"/>
                </mxCell>
                <mxCell id="2c7sEg-d1-WkzC0QCvUQ-63" style="edgeStyle=elbowEdgeStyle;elbow=vertical;html=1;exitX=0.1;exitY=0.5;exitDx=0;exitDy=0;exitPerimeter=0;entryX=0.25;entryY=0;entryDx=0;entryDy=0;strokeColor=#000000;fontFamily=CMU;fontSource=https%3A%2F%2Ffonts.googleapis.com%2Fcss%3Ffamily%3DCMU;fontColor=#000000;endArrow=none;endFill=0;" parent="1" source="2c7sEg-d1-WkzC0QCvUQ-64" target="2c7sEg-d1-WkzC0QCvUQ-56" edge="1">
                    <mxGeometry relative="1" as="geometry"/>
                </mxCell>
                <mxCell id="2c7sEg-d1-WkzC0QCvUQ-64" value="" style="verticalLabelPosition=bottom;shadow=0;dashed=0;align=center;html=1;verticalAlign=top;shape=mxgraph.electrical.logic_gates.inverting_contact;strokeColor=#000000;fontFamily=CMU;fontSource=https%3A%2F%2Ffonts.googleapis.com%2Fcss%3Ffamily%3DCMU;fontColor=#000000;fillColor=#FFFFFF;portConstraintRotation=0;rotation=-90;" parent="1" vertex="1">
                    <mxGeometry x="555" y="49" width="10" height="10" as="geometry"/>
                </mxCell>
                <mxCell id="2c7sEg-d1-WkzC0QCvUQ-65" value="S4" style="text;html=1;strokeColor=none;fillColor=none;align=center;verticalAlign=middle;whiteSpace=wrap;rounded=0;fontFamily=CMU;fontSource=https%3A%2F%2Ffonts.googleapis.com%2Fcss%3Ffamily%3DCMU;fontColor=#000000;" parent="1" vertex="1">
                    <mxGeometry x="551.5" y="31" width="17" height="18" as="geometry"/>
                </mxCell>
                <mxCell id="2c7sEg-d1-WkzC0QCvUQ-66" value="" style="endArrow=none;html=1;strokeColor=#000000;fontFamily=CMU;fontSource=https%3A%2F%2Ffonts.googleapis.com%2Fcss%3Ffamily%3DCMU;fontColor=#000000;edgeStyle=elbowEdgeStyle;elbow=vertical;" parent="1" edge="1">
                    <mxGeometry width="50" height="50" relative="1" as="geometry">
                        <mxPoint x="535.0000000000001" y="209.5" as="sourcePoint"/>
                        <mxPoint x="520.0000000000001" y="199.5" as="targetPoint"/>
                        <Array as="points">
                            <mxPoint x="530" y="209.5"/>
                        </Array>
                    </mxGeometry>
                </mxCell>
                <mxCell id="2c7sEg-d1-WkzC0QCvUQ-67" style="edgeStyle=elbowEdgeStyle;html=1;strokeColor=#000000;fontFamily=CMU;fontSource=https%3A%2F%2Ffonts.googleapis.com%2Fcss%3Ffamily%3DCMU;fontColor=#000000;endArrow=none;endFill=0;elbow=vertical;exitX=0.75;exitY=0;exitDx=0;exitDy=0;" parent="1" source="2c7sEg-d1-WkzC0QCvUQ-56" edge="1">
                    <mxGeometry relative="1" as="geometry">
                        <mxPoint x="600" y="100" as="sourcePoint"/>
                        <mxPoint x="640.0000000000001" y="200.5" as="targetPoint"/>
                        <Array as="points">
                            <mxPoint x="620" y="90.5"/>
                        </Array>
                    </mxGeometry>
                </mxCell>
                <mxCell id="2c7sEg-d1-WkzC0QCvUQ-68" style="edgeStyle=elbowEdgeStyle;elbow=vertical;html=1;exitX=0.75;exitY=1;exitDx=0;exitDy=0;entryX=0.9;entryY=0.5;entryDx=0;entryDy=0;entryPerimeter=0;strokeColor=#000000;fontFamily=CMU;fontSource=https%3A%2F%2Ffonts.googleapis.com%2Fcss%3Ffamily%3DCMU;fontColor=#000000;endArrow=none;endFill=0;" parent="1" source="2c7sEg-d1-WkzC0QCvUQ-70" target="2c7sEg-d1-WkzC0QCvUQ-74" edge="1">
                    <mxGeometry relative="1" as="geometry"/>
                </mxCell>
                <mxCell id="2c7sEg-d1-WkzC0QCvUQ-69" style="edgeStyle=elbowEdgeStyle;html=1;exitX=0.25;exitY=1;exitDx=0;exitDy=0;strokeColor=#000000;fontFamily=CMU;fontSource=https%3A%2F%2Ffonts.googleapis.com%2Fcss%3Ffamily%3DCMU;fontColor=#000000;endArrow=none;endFill=0;" parent="1" source="2c7sEg-d1-WkzC0QCvUQ-70" edge="1">
                    <mxGeometry relative="1" as="geometry">
                        <mxPoint x="655.0000000000001" y="210.5" as="targetPoint"/>
                        <Array as="points">
                            <mxPoint x="680" y="205.5"/>
                        </Array>
                    </mxGeometry>
                </mxCell>
                <mxCell id="2c7sEg-d1-WkzC0QCvUQ-70" value="" style="rounded=0;whiteSpace=wrap;html=1;fillColor=#FFFFFF;strokeColor=#000000;" parent="1" vertex="1">
                    <mxGeometry x="660" y="100" width="80" height="100" as="geometry"/>
                </mxCell>
                <mxCell id="2c7sEg-d1-WkzC0QCvUQ-71" value="&lt;font color=&quot;#000000&quot;&gt;FULL&lt;br&gt;ADDER&lt;/font&gt;" style="text;html=1;strokeColor=none;fillColor=none;align=center;verticalAlign=middle;whiteSpace=wrap;rounded=0;fontFamily=CMU;fontSource=https%3A%2F%2Ffonts.googleapis.com%2Fcss%3Ffamily%3DCMU;" parent="1" vertex="1">
                    <mxGeometry x="670" y="135" width="60" height="30" as="geometry"/>
                </mxCell>
                <mxCell id="2c7sEg-d1-WkzC0QCvUQ-72" style="edgeStyle=elbowEdgeStyle;html=1;exitX=0.9;exitY=0.5;exitDx=0;exitDy=0;exitPerimeter=0;entryX=0.5;entryY=1;entryDx=0;entryDy=0;fontFamily=CMU;fontSource=https%3A%2F%2Ffonts.googleapis.com%2Fcss%3Ffamily%3DCMU;fontColor=#000000;endArrow=none;endFill=0;elbow=vertical;strokeColor=#000000;" parent="1" source="2c7sEg-d1-WkzC0QCvUQ-73" target="2c7sEg-d1-WkzC0QCvUQ-70" edge="1">
                    <mxGeometry relative="1" as="geometry"/>
                </mxCell>
                <mxCell id="2c7sEg-d1-WkzC0QCvUQ-73" value="" style="verticalLabelPosition=bottom;shadow=0;dashed=0;align=center;html=1;verticalAlign=top;shape=mxgraph.electrical.logic_gates.inverting_contact;strokeColor=#000000;fontFamily=CMU;fontSource=https%3A%2F%2Ffonts.googleapis.com%2Fcss%3Ffamily%3DCMU;fontColor=#000000;fillColor=#FFFFFF;portConstraintRotation=0;rotation=-90;" parent="1" vertex="1">
                    <mxGeometry x="695" y="241" width="10" height="10" as="geometry"/>
                </mxCell>
                <mxCell id="2c7sEg-d1-WkzC0QCvUQ-74" value="" style="verticalLabelPosition=bottom;shadow=0;dashed=0;align=center;html=1;verticalAlign=top;shape=mxgraph.electrical.logic_gates.inverting_contact;strokeColor=#000000;fontFamily=CMU;fontSource=https%3A%2F%2Ffonts.googleapis.com%2Fcss%3Ffamily%3DCMU;fontColor=#000000;fillColor=#FFFFFF;portConstraintRotation=0;rotation=-90;" parent="1" vertex="1">
                    <mxGeometry x="714.5" y="241" width="10" height="10" as="geometry"/>
                </mxCell>
                <mxCell id="2c7sEg-d1-WkzC0QCvUQ-75" value="A5" style="text;html=1;strokeColor=none;fillColor=none;align=center;verticalAlign=middle;whiteSpace=wrap;rounded=0;fontFamily=CMU;fontSource=https%3A%2F%2Ffonts.googleapis.com%2Fcss%3Ffamily%3DCMU;fontColor=#000000;" parent="1" vertex="1">
                    <mxGeometry x="691.5" y="251" width="17" height="18" as="geometry"/>
                </mxCell>
                <mxCell id="2c7sEg-d1-WkzC0QCvUQ-76" value="B5" style="text;html=1;strokeColor=none;fillColor=none;align=center;verticalAlign=middle;whiteSpace=wrap;rounded=0;fontFamily=CMU;fontSource=https%3A%2F%2Ffonts.googleapis.com%2Fcss%3Ffamily%3DCMU;fontColor=#000000;" parent="1" vertex="1">
                    <mxGeometry x="711" y="251" width="17" height="18" as="geometry"/>
                </mxCell>
                <mxCell id="2c7sEg-d1-WkzC0QCvUQ-77" style="edgeStyle=elbowEdgeStyle;elbow=vertical;html=1;exitX=0.1;exitY=0.5;exitDx=0;exitDy=0;exitPerimeter=0;entryX=0.25;entryY=0;entryDx=0;entryDy=0;strokeColor=#000000;fontFamily=CMU;fontSource=https%3A%2F%2Ffonts.googleapis.com%2Fcss%3Ffamily%3DCMU;fontColor=#000000;endArrow=none;endFill=0;" parent="1" source="2c7sEg-d1-WkzC0QCvUQ-78" target="2c7sEg-d1-WkzC0QCvUQ-70" edge="1">
                    <mxGeometry relative="1" as="geometry"/>
                </mxCell>
                <mxCell id="2c7sEg-d1-WkzC0QCvUQ-78" value="" style="verticalLabelPosition=bottom;shadow=0;dashed=0;align=center;html=1;verticalAlign=top;shape=mxgraph.electrical.logic_gates.inverting_contact;strokeColor=#000000;fontFamily=CMU;fontSource=https%3A%2F%2Ffonts.googleapis.com%2Fcss%3Ffamily%3DCMU;fontColor=#000000;fillColor=#FFFFFF;portConstraintRotation=0;rotation=-90;" parent="1" vertex="1">
                    <mxGeometry x="675" y="50" width="10" height="10" as="geometry"/>
                </mxCell>
                <mxCell id="2c7sEg-d1-WkzC0QCvUQ-79" value="S5" style="text;html=1;strokeColor=none;fillColor=none;align=center;verticalAlign=middle;whiteSpace=wrap;rounded=0;fontFamily=CMU;fontSource=https%3A%2F%2Ffonts.googleapis.com%2Fcss%3Ffamily%3DCMU;fontColor=#000000;" parent="1" vertex="1">
                    <mxGeometry x="671.5" y="32" width="17" height="18" as="geometry"/>
                </mxCell>
                <mxCell id="2c7sEg-d1-WkzC0QCvUQ-80" value="" style="endArrow=none;html=1;strokeColor=#000000;fontFamily=CMU;fontSource=https%3A%2F%2Ffonts.googleapis.com%2Fcss%3Ffamily%3DCMU;fontColor=#000000;edgeStyle=elbowEdgeStyle;elbow=vertical;" parent="1" edge="1">
                    <mxGeometry width="50" height="50" relative="1" as="geometry">
                        <mxPoint x="655.0000000000001" y="210.5" as="sourcePoint"/>
                        <mxPoint x="640.0000000000001" y="200.5" as="targetPoint"/>
                        <Array as="points">
                            <mxPoint x="650" y="210.5"/>
                        </Array>
                    </mxGeometry>
                </mxCell>
                <mxCell id="2c7sEg-d1-WkzC0QCvUQ-83" style="edgeStyle=elbowEdgeStyle;html=1;exitX=0.75;exitY=0;exitDx=0;exitDy=0;strokeColor=#000000;fontFamily=CMU;fontSource=https%3A%2F%2Ffonts.googleapis.com%2Fcss%3Ffamily%3DCMU;fontColor=#000000;endArrow=none;endFill=0;elbow=vertical;" parent="1" source="2c7sEg-d1-WkzC0QCvUQ-70" edge="1">
                    <mxGeometry relative="1" as="geometry">
                        <mxPoint x="725.5" y="99" as="sourcePoint"/>
                        <mxPoint x="765.5" y="199" as="targetPoint"/>
                        <Array as="points">
                            <mxPoint x="745.5" y="89"/>
                        </Array>
                    </mxGeometry>
                </mxCell>
                <mxCell id="2c7sEg-d1-WkzC0QCvUQ-84" style="edgeStyle=elbowEdgeStyle;elbow=vertical;html=1;exitX=0.75;exitY=1;exitDx=0;exitDy=0;entryX=0.9;entryY=0.5;entryDx=0;entryDy=0;entryPerimeter=0;strokeColor=#000000;fontFamily=CMU;fontSource=https%3A%2F%2Ffonts.googleapis.com%2Fcss%3Ffamily%3DCMU;fontColor=#000000;endArrow=none;endFill=0;" parent="1" source="2c7sEg-d1-WkzC0QCvUQ-86" target="2c7sEg-d1-WkzC0QCvUQ-90" edge="1">
                    <mxGeometry relative="1" as="geometry"/>
                </mxCell>
                <mxCell id="2c7sEg-d1-WkzC0QCvUQ-85" style="edgeStyle=elbowEdgeStyle;html=1;exitX=0.25;exitY=1;exitDx=0;exitDy=0;strokeColor=#000000;fontFamily=CMU;fontSource=https%3A%2F%2Ffonts.googleapis.com%2Fcss%3Ffamily%3DCMU;fontColor=#000000;endArrow=none;endFill=0;" parent="1" source="2c7sEg-d1-WkzC0QCvUQ-86" edge="1">
                    <mxGeometry relative="1" as="geometry">
                        <mxPoint x="780.5" y="209" as="targetPoint"/>
                        <Array as="points">
                            <mxPoint x="805.5" y="204"/>
                        </Array>
                    </mxGeometry>
                </mxCell>
                <mxCell id="2c7sEg-d1-WkzC0QCvUQ-86" value="" style="rounded=0;whiteSpace=wrap;html=1;fillColor=#FFFFFF;strokeColor=#000000;" parent="1" vertex="1">
                    <mxGeometry x="785.5" y="98.5" width="80" height="100" as="geometry"/>
                </mxCell>
                <mxCell id="2c7sEg-d1-WkzC0QCvUQ-87" value="&lt;font color=&quot;#000000&quot;&gt;FULL&lt;br&gt;ADDER&lt;/font&gt;" style="text;html=1;strokeColor=none;fillColor=none;align=center;verticalAlign=middle;whiteSpace=wrap;rounded=0;fontFamily=CMU;fontSource=https%3A%2F%2Ffonts.googleapis.com%2Fcss%3Ffamily%3DCMU;" parent="1" vertex="1">
                    <mxGeometry x="795.5" y="133.5" width="60" height="30" as="geometry"/>
                </mxCell>
                <mxCell id="2c7sEg-d1-WkzC0QCvUQ-88" style="edgeStyle=elbowEdgeStyle;html=1;exitX=0.9;exitY=0.5;exitDx=0;exitDy=0;exitPerimeter=0;entryX=0.5;entryY=1;entryDx=0;entryDy=0;fontFamily=CMU;fontSource=https%3A%2F%2Ffonts.googleapis.com%2Fcss%3Ffamily%3DCMU;fontColor=#000000;endArrow=none;endFill=0;elbow=vertical;strokeColor=#000000;" parent="1" source="2c7sEg-d1-WkzC0QCvUQ-89" target="2c7sEg-d1-WkzC0QCvUQ-86" edge="1">
                    <mxGeometry relative="1" as="geometry"/>
                </mxCell>
                <mxCell id="2c7sEg-d1-WkzC0QCvUQ-89" value="" style="verticalLabelPosition=bottom;shadow=0;dashed=0;align=center;html=1;verticalAlign=top;shape=mxgraph.electrical.logic_gates.inverting_contact;strokeColor=#000000;fontFamily=CMU;fontSource=https%3A%2F%2Ffonts.googleapis.com%2Fcss%3Ffamily%3DCMU;fontColor=#000000;fillColor=#FFFFFF;portConstraintRotation=0;rotation=-90;" parent="1" vertex="1">
                    <mxGeometry x="820.5" y="239.5" width="10" height="10" as="geometry"/>
                </mxCell>
                <mxCell id="2c7sEg-d1-WkzC0QCvUQ-90" value="" style="verticalLabelPosition=bottom;shadow=0;dashed=0;align=center;html=1;verticalAlign=top;shape=mxgraph.electrical.logic_gates.inverting_contact;strokeColor=#000000;fontFamily=CMU;fontSource=https%3A%2F%2Ffonts.googleapis.com%2Fcss%3Ffamily%3DCMU;fontColor=#000000;fillColor=#FFFFFF;portConstraintRotation=0;rotation=-90;" parent="1" vertex="1">
                    <mxGeometry x="840" y="239.5" width="10" height="10" as="geometry"/>
                </mxCell>
                <mxCell id="2c7sEg-d1-WkzC0QCvUQ-91" value="A6" style="text;html=1;strokeColor=none;fillColor=none;align=center;verticalAlign=middle;whiteSpace=wrap;rounded=0;fontFamily=CMU;fontSource=https%3A%2F%2Ffonts.googleapis.com%2Fcss%3Ffamily%3DCMU;fontColor=#000000;" parent="1" vertex="1">
                    <mxGeometry x="817" y="249.5" width="17" height="18" as="geometry"/>
                </mxCell>
                <mxCell id="2c7sEg-d1-WkzC0QCvUQ-92" value="B6" style="text;html=1;strokeColor=none;fillColor=none;align=center;verticalAlign=middle;whiteSpace=wrap;rounded=0;fontFamily=CMU;fontSource=https%3A%2F%2Ffonts.googleapis.com%2Fcss%3Ffamily%3DCMU;fontColor=#000000;" parent="1" vertex="1">
                    <mxGeometry x="836.5" y="249.5" width="17" height="18" as="geometry"/>
                </mxCell>
                <mxCell id="2c7sEg-d1-WkzC0QCvUQ-93" style="edgeStyle=elbowEdgeStyle;elbow=vertical;html=1;exitX=0.1;exitY=0.5;exitDx=0;exitDy=0;exitPerimeter=0;entryX=0.25;entryY=0;entryDx=0;entryDy=0;strokeColor=#000000;fontFamily=CMU;fontSource=https%3A%2F%2Ffonts.googleapis.com%2Fcss%3Ffamily%3DCMU;fontColor=#000000;endArrow=none;endFill=0;" parent="1" source="2c7sEg-d1-WkzC0QCvUQ-94" target="2c7sEg-d1-WkzC0QCvUQ-86" edge="1">
                    <mxGeometry relative="1" as="geometry"/>
                </mxCell>
                <mxCell id="2c7sEg-d1-WkzC0QCvUQ-94" value="" style="verticalLabelPosition=bottom;shadow=0;dashed=0;align=center;html=1;verticalAlign=top;shape=mxgraph.electrical.logic_gates.inverting_contact;strokeColor=#000000;fontFamily=CMU;fontSource=https%3A%2F%2Ffonts.googleapis.com%2Fcss%3Ffamily%3DCMU;fontColor=#000000;fillColor=#FFFFFF;portConstraintRotation=0;rotation=-90;" parent="1" vertex="1">
                    <mxGeometry x="800.5" y="48.5" width="10" height="10" as="geometry"/>
                </mxCell>
                <mxCell id="2c7sEg-d1-WkzC0QCvUQ-95" value="S6" style="text;html=1;strokeColor=none;fillColor=none;align=center;verticalAlign=middle;whiteSpace=wrap;rounded=0;fontFamily=CMU;fontSource=https%3A%2F%2Ffonts.googleapis.com%2Fcss%3Ffamily%3DCMU;fontColor=#000000;" parent="1" vertex="1">
                    <mxGeometry x="797" y="30.5" width="17" height="18" as="geometry"/>
                </mxCell>
                <mxCell id="2c7sEg-d1-WkzC0QCvUQ-96" value="" style="endArrow=none;html=1;strokeColor=#000000;fontFamily=CMU;fontSource=https%3A%2F%2Ffonts.googleapis.com%2Fcss%3Ffamily%3DCMU;fontColor=#000000;edgeStyle=elbowEdgeStyle;elbow=vertical;" parent="1" edge="1">
                    <mxGeometry width="50" height="50" relative="1" as="geometry">
                        <mxPoint x="780.5" y="209" as="sourcePoint"/>
                        <mxPoint x="765.5" y="199" as="targetPoint"/>
                        <Array as="points">
                            <mxPoint x="775.5" y="209"/>
                        </Array>
                    </mxGeometry>
                </mxCell>
                <mxCell id="2c7sEg-d1-WkzC0QCvUQ-97" style="edgeStyle=elbowEdgeStyle;html=1;exitX=0.75;exitY=0;exitDx=0;exitDy=0;strokeColor=#000000;fontFamily=CMU;fontSource=https%3A%2F%2Ffonts.googleapis.com%2Fcss%3Ffamily%3DCMU;fontColor=#000000;endArrow=none;endFill=0;elbow=vertical;" parent="1" edge="1">
                    <mxGeometry relative="1" as="geometry">
                        <mxPoint x="845.5" y="99" as="sourcePoint"/>
                        <mxPoint x="885.5" y="199" as="targetPoint"/>
                        <Array as="points">
                            <mxPoint x="865.5" y="89"/>
                        </Array>
                    </mxGeometry>
                </mxCell>
                <mxCell id="2c7sEg-d1-WkzC0QCvUQ-98" style="edgeStyle=elbowEdgeStyle;elbow=vertical;html=1;exitX=0.75;exitY=1;exitDx=0;exitDy=0;entryX=0.9;entryY=0.5;entryDx=0;entryDy=0;entryPerimeter=0;strokeColor=#000000;fontFamily=CMU;fontSource=https%3A%2F%2Ffonts.googleapis.com%2Fcss%3Ffamily%3DCMU;fontColor=#000000;endArrow=none;endFill=0;" parent="1" source="2c7sEg-d1-WkzC0QCvUQ-100" target="2c7sEg-d1-WkzC0QCvUQ-104" edge="1">
                    <mxGeometry relative="1" as="geometry"/>
                </mxCell>
                <mxCell id="2c7sEg-d1-WkzC0QCvUQ-99" style="edgeStyle=elbowEdgeStyle;html=1;exitX=0.25;exitY=1;exitDx=0;exitDy=0;strokeColor=#000000;fontFamily=CMU;fontSource=https%3A%2F%2Ffonts.googleapis.com%2Fcss%3Ffamily%3DCMU;fontColor=#000000;endArrow=none;endFill=0;" parent="1" source="2c7sEg-d1-WkzC0QCvUQ-100" edge="1">
                    <mxGeometry relative="1" as="geometry">
                        <mxPoint x="900.5" y="209" as="targetPoint"/>
                        <Array as="points">
                            <mxPoint x="925.5" y="204"/>
                        </Array>
                    </mxGeometry>
                </mxCell>
                <mxCell id="2c7sEg-d1-WkzC0QCvUQ-100" value="" style="rounded=0;whiteSpace=wrap;html=1;fillColor=#FFFFFF;strokeColor=#000000;" parent="1" vertex="1">
                    <mxGeometry x="905.5" y="98.5" width="80" height="100" as="geometry"/>
                </mxCell>
                <mxCell id="2c7sEg-d1-WkzC0QCvUQ-101" value="&lt;font color=&quot;#000000&quot;&gt;FULL&lt;br&gt;ADDER&lt;/font&gt;" style="text;html=1;strokeColor=none;fillColor=none;align=center;verticalAlign=middle;whiteSpace=wrap;rounded=0;fontFamily=CMU;fontSource=https%3A%2F%2Ffonts.googleapis.com%2Fcss%3Ffamily%3DCMU;" parent="1" vertex="1">
                    <mxGeometry x="915.5" y="133.5" width="60" height="30" as="geometry"/>
                </mxCell>
                <mxCell id="2c7sEg-d1-WkzC0QCvUQ-102" style="edgeStyle=elbowEdgeStyle;html=1;exitX=0.9;exitY=0.5;exitDx=0;exitDy=0;exitPerimeter=0;entryX=0.5;entryY=1;entryDx=0;entryDy=0;fontFamily=CMU;fontSource=https%3A%2F%2Ffonts.googleapis.com%2Fcss%3Ffamily%3DCMU;fontColor=#000000;endArrow=none;endFill=0;elbow=vertical;strokeColor=#000000;" parent="1" source="2c7sEg-d1-WkzC0QCvUQ-103" target="2c7sEg-d1-WkzC0QCvUQ-100" edge="1">
                    <mxGeometry relative="1" as="geometry"/>
                </mxCell>
                <mxCell id="2c7sEg-d1-WkzC0QCvUQ-103" value="" style="verticalLabelPosition=bottom;shadow=0;dashed=0;align=center;html=1;verticalAlign=top;shape=mxgraph.electrical.logic_gates.inverting_contact;strokeColor=#000000;fontFamily=CMU;fontSource=https%3A%2F%2Ffonts.googleapis.com%2Fcss%3Ffamily%3DCMU;fontColor=#000000;fillColor=#FFFFFF;portConstraintRotation=0;rotation=-90;" parent="1" vertex="1">
                    <mxGeometry x="940.5" y="239.5" width="10" height="10" as="geometry"/>
                </mxCell>
                <mxCell id="2c7sEg-d1-WkzC0QCvUQ-104" value="" style="verticalLabelPosition=bottom;shadow=0;dashed=0;align=center;html=1;verticalAlign=top;shape=mxgraph.electrical.logic_gates.inverting_contact;strokeColor=#000000;fontFamily=CMU;fontSource=https%3A%2F%2Ffonts.googleapis.com%2Fcss%3Ffamily%3DCMU;fontColor=#000000;fillColor=#FFFFFF;portConstraintRotation=0;rotation=-90;" parent="1" vertex="1">
                    <mxGeometry x="960" y="239.5" width="10" height="10" as="geometry"/>
                </mxCell>
                <mxCell id="2c7sEg-d1-WkzC0QCvUQ-105" value="A7" style="text;html=1;strokeColor=none;fillColor=none;align=center;verticalAlign=middle;whiteSpace=wrap;rounded=0;fontFamily=CMU;fontSource=https%3A%2F%2Ffonts.googleapis.com%2Fcss%3Ffamily%3DCMU;fontColor=#000000;" parent="1" vertex="1">
                    <mxGeometry x="937" y="249.5" width="17" height="18" as="geometry"/>
                </mxCell>
                <mxCell id="2c7sEg-d1-WkzC0QCvUQ-106" value="B7" style="text;html=1;strokeColor=none;fillColor=none;align=center;verticalAlign=middle;whiteSpace=wrap;rounded=0;fontFamily=CMU;fontSource=https%3A%2F%2Ffonts.googleapis.com%2Fcss%3Ffamily%3DCMU;fontColor=#000000;" parent="1" vertex="1">
                    <mxGeometry x="956.5" y="249.5" width="17" height="18" as="geometry"/>
                </mxCell>
                <mxCell id="2c7sEg-d1-WkzC0QCvUQ-107" style="edgeStyle=elbowEdgeStyle;elbow=vertical;html=1;exitX=0.1;exitY=0.5;exitDx=0;exitDy=0;exitPerimeter=0;entryX=0.25;entryY=0;entryDx=0;entryDy=0;strokeColor=#000000;fontFamily=CMU;fontSource=https%3A%2F%2Ffonts.googleapis.com%2Fcss%3Ffamily%3DCMU;fontColor=#000000;endArrow=none;endFill=0;" parent="1" source="2c7sEg-d1-WkzC0QCvUQ-108" target="2c7sEg-d1-WkzC0QCvUQ-100" edge="1">
                    <mxGeometry relative="1" as="geometry"/>
                </mxCell>
                <mxCell id="2c7sEg-d1-WkzC0QCvUQ-108" value="" style="verticalLabelPosition=bottom;shadow=0;dashed=0;align=center;html=1;verticalAlign=top;shape=mxgraph.electrical.logic_gates.inverting_contact;strokeColor=#000000;fontFamily=CMU;fontSource=https%3A%2F%2Ffonts.googleapis.com%2Fcss%3Ffamily%3DCMU;fontColor=#000000;fillColor=#FFFFFF;portConstraintRotation=0;rotation=-90;" parent="1" vertex="1">
                    <mxGeometry x="920.5" y="48.5" width="10" height="10" as="geometry"/>
                </mxCell>
                <mxCell id="2c7sEg-d1-WkzC0QCvUQ-109" value="S7" style="text;html=1;strokeColor=none;fillColor=none;align=center;verticalAlign=middle;whiteSpace=wrap;rounded=0;fontFamily=CMU;fontSource=https%3A%2F%2Ffonts.googleapis.com%2Fcss%3Ffamily%3DCMU;fontColor=#000000;" parent="1" vertex="1">
                    <mxGeometry x="917" y="30.5" width="17" height="18" as="geometry"/>
                </mxCell>
                <mxCell id="2c7sEg-d1-WkzC0QCvUQ-110" value="" style="endArrow=none;html=1;strokeColor=#000000;fontFamily=CMU;fontSource=https%3A%2F%2Ffonts.googleapis.com%2Fcss%3Ffamily%3DCMU;fontColor=#000000;edgeStyle=elbowEdgeStyle;elbow=vertical;" parent="1" edge="1">
                    <mxGeometry width="50" height="50" relative="1" as="geometry">
                        <mxPoint x="900.5" y="209" as="sourcePoint"/>
                        <mxPoint x="885.5" y="199" as="targetPoint"/>
                        <Array as="points">
                            <mxPoint x="895.5" y="209"/>
                        </Array>
                    </mxGeometry>
                </mxCell>
                <mxCell id="2c7sEg-d1-WkzC0QCvUQ-111" style="edgeStyle=elbowEdgeStyle;html=1;strokeColor=#000000;fontFamily=CMU;fontSource=https%3A%2F%2Ffonts.googleapis.com%2Fcss%3Ffamily%3DCMU;fontColor=#000000;endArrow=none;endFill=0;elbow=vertical;exitX=0.75;exitY=0;exitDx=0;exitDy=0;" parent="1" source="2c7sEg-d1-WkzC0QCvUQ-100" edge="1">
                    <mxGeometry relative="1" as="geometry">
                        <mxPoint x="965" y="95" as="sourcePoint"/>
                        <mxPoint x="1005.5" y="200" as="targetPoint"/>
                        <Array as="points">
                            <mxPoint x="985.5" y="90"/>
                        </Array>
                    </mxGeometry>
                </mxCell>
                <mxCell id="2c7sEg-d1-WkzC0QCvUQ-112" style="edgeStyle=elbowEdgeStyle;elbow=vertical;html=1;exitX=0.75;exitY=1;exitDx=0;exitDy=0;entryX=0.9;entryY=0.5;entryDx=0;entryDy=0;entryPerimeter=0;strokeColor=#000000;fontFamily=CMU;fontSource=https%3A%2F%2Ffonts.googleapis.com%2Fcss%3Ffamily%3DCMU;fontColor=#000000;endArrow=none;endFill=0;" parent="1" source="2c7sEg-d1-WkzC0QCvUQ-114" target="2c7sEg-d1-WkzC0QCvUQ-118" edge="1">
                    <mxGeometry relative="1" as="geometry"/>
                </mxCell>
                <mxCell id="2c7sEg-d1-WkzC0QCvUQ-113" style="edgeStyle=elbowEdgeStyle;html=1;exitX=0.25;exitY=1;exitDx=0;exitDy=0;strokeColor=#000000;fontFamily=CMU;fontSource=https%3A%2F%2Ffonts.googleapis.com%2Fcss%3Ffamily%3DCMU;fontColor=#000000;endArrow=none;endFill=0;" parent="1" source="2c7sEg-d1-WkzC0QCvUQ-114" edge="1">
                    <mxGeometry relative="1" as="geometry">
                        <mxPoint x="1020.5" y="210" as="targetPoint"/>
                        <Array as="points">
                            <mxPoint x="1045.5" y="205"/>
                        </Array>
                    </mxGeometry>
                </mxCell>
                <mxCell id="2c7sEg-d1-WkzC0QCvUQ-114" value="" style="rounded=0;whiteSpace=wrap;html=1;fillColor=#FFFFFF;strokeColor=#000000;" parent="1" vertex="1">
                    <mxGeometry x="1025.5" y="99.5" width="80" height="100" as="geometry"/>
                </mxCell>
                <mxCell id="2c7sEg-d1-WkzC0QCvUQ-115" value="&lt;font color=&quot;#000000&quot;&gt;FULL&lt;br&gt;ADDER&lt;/font&gt;" style="text;html=1;strokeColor=none;fillColor=none;align=center;verticalAlign=middle;whiteSpace=wrap;rounded=0;fontFamily=CMU;fontSource=https%3A%2F%2Ffonts.googleapis.com%2Fcss%3Ffamily%3DCMU;" parent="1" vertex="1">
                    <mxGeometry x="1035.5" y="134.5" width="60" height="30" as="geometry"/>
                </mxCell>
                <mxCell id="2c7sEg-d1-WkzC0QCvUQ-116" style="edgeStyle=elbowEdgeStyle;html=1;exitX=0.9;exitY=0.5;exitDx=0;exitDy=0;exitPerimeter=0;entryX=0.5;entryY=1;entryDx=0;entryDy=0;fontFamily=CMU;fontSource=https%3A%2F%2Ffonts.googleapis.com%2Fcss%3Ffamily%3DCMU;fontColor=#000000;endArrow=none;endFill=0;elbow=vertical;strokeColor=#000000;" parent="1" source="2c7sEg-d1-WkzC0QCvUQ-117" target="2c7sEg-d1-WkzC0QCvUQ-114" edge="1">
                    <mxGeometry relative="1" as="geometry"/>
                </mxCell>
                <mxCell id="2c7sEg-d1-WkzC0QCvUQ-117" value="" style="verticalLabelPosition=bottom;shadow=0;dashed=0;align=center;html=1;verticalAlign=top;shape=mxgraph.electrical.logic_gates.inverting_contact;strokeColor=#000000;fontFamily=CMU;fontSource=https%3A%2F%2Ffonts.googleapis.com%2Fcss%3Ffamily%3DCMU;fontColor=#000000;fillColor=#FFFFFF;portConstraintRotation=0;rotation=-90;" parent="1" vertex="1">
                    <mxGeometry x="1060.5" y="240.5" width="10" height="10" as="geometry"/>
                </mxCell>
                <mxCell id="2c7sEg-d1-WkzC0QCvUQ-118" value="" style="verticalLabelPosition=bottom;shadow=0;dashed=0;align=center;html=1;verticalAlign=top;shape=mxgraph.electrical.logic_gates.inverting_contact;strokeColor=#000000;fontFamily=CMU;fontSource=https%3A%2F%2Ffonts.googleapis.com%2Fcss%3Ffamily%3DCMU;fontColor=#000000;fillColor=#FFFFFF;portConstraintRotation=0;rotation=-90;" parent="1" vertex="1">
                    <mxGeometry x="1080" y="240.5" width="10" height="10" as="geometry"/>
                </mxCell>
                <mxCell id="2c7sEg-d1-WkzC0QCvUQ-119" style="edgeStyle=elbowEdgeStyle;elbow=vertical;html=1;exitX=0.1;exitY=0.5;exitDx=0;exitDy=0;exitPerimeter=0;entryX=0.25;entryY=0;entryDx=0;entryDy=0;strokeColor=#000000;fontFamily=CMU;fontSource=https%3A%2F%2Ffonts.googleapis.com%2Fcss%3Ffamily%3DCMU;fontColor=#000000;endArrow=none;endFill=0;" parent="1" source="2c7sEg-d1-WkzC0QCvUQ-120" target="2c7sEg-d1-WkzC0QCvUQ-114" edge="1">
                    <mxGeometry relative="1" as="geometry"/>
                </mxCell>
                <mxCell id="2c7sEg-d1-WkzC0QCvUQ-120" value="" style="verticalLabelPosition=bottom;shadow=0;dashed=0;align=center;html=1;verticalAlign=top;shape=mxgraph.electrical.logic_gates.inverting_contact;strokeColor=#000000;fontFamily=CMU;fontSource=https%3A%2F%2Ffonts.googleapis.com%2Fcss%3Ffamily%3DCMU;fontColor=#000000;fillColor=#FFFFFF;portConstraintRotation=0;rotation=-90;" parent="1" vertex="1">
                    <mxGeometry x="1040.5" y="49.5" width="10" height="10" as="geometry"/>
                </mxCell>
                <mxCell id="2c7sEg-d1-WkzC0QCvUQ-121" value="S8" style="text;html=1;strokeColor=none;fillColor=none;align=center;verticalAlign=middle;whiteSpace=wrap;rounded=0;fontFamily=CMU;fontSource=https%3A%2F%2Ffonts.googleapis.com%2Fcss%3Ffamily%3DCMU;fontColor=#000000;" parent="1" vertex="1">
                    <mxGeometry x="1037" y="31.5" width="17" height="18" as="geometry"/>
                </mxCell>
                <mxCell id="2c7sEg-d1-WkzC0QCvUQ-122" value="" style="endArrow=none;html=1;strokeColor=#000000;fontFamily=CMU;fontSource=https%3A%2F%2Ffonts.googleapis.com%2Fcss%3Ffamily%3DCMU;fontColor=#000000;edgeStyle=elbowEdgeStyle;elbow=vertical;" parent="1" edge="1">
                    <mxGeometry width="50" height="50" relative="1" as="geometry">
                        <mxPoint x="1020.5" y="210" as="sourcePoint"/>
                        <mxPoint x="1005.5" y="200" as="targetPoint"/>
                        <Array as="points">
                            <mxPoint x="1015.5" y="210"/>
                        </Array>
                    </mxGeometry>
                </mxCell>
                <mxCell id="2c7sEg-d1-WkzC0QCvUQ-123" value="A8" style="text;html=1;strokeColor=none;fillColor=none;align=center;verticalAlign=middle;whiteSpace=wrap;rounded=0;fontFamily=CMU;fontSource=https%3A%2F%2Ffonts.googleapis.com%2Fcss%3Ffamily%3DCMU;fontColor=#000000;" parent="1" vertex="1">
                    <mxGeometry x="1057" y="250" width="17" height="18" as="geometry"/>
                </mxCell>
                <mxCell id="2c7sEg-d1-WkzC0QCvUQ-124" value="B8" style="text;html=1;strokeColor=none;fillColor=none;align=center;verticalAlign=middle;whiteSpace=wrap;rounded=0;fontFamily=CMU;fontSource=https%3A%2F%2Ffonts.googleapis.com%2Fcss%3Ffamily%3DCMU;fontColor=#000000;" parent="1" vertex="1">
                    <mxGeometry x="1076.5" y="249.5" width="17" height="18" as="geometry"/>
                </mxCell>
                <mxCell id="jRfgWLA4sOFYj0J1e9Nx-1" value="C1" style="text;html=1;strokeColor=none;fillColor=none;align=center;verticalAlign=middle;whiteSpace=wrap;rounded=0;fontFamily=CMU;fontSource=https%3A%2F%2Ffonts.googleapis.com%2Fcss%3Ffamily%3DCMU;fontColor=#000000;" parent="1" vertex="1">
                    <mxGeometry x="240" y="70" width="17" height="18" as="geometry"/>
                </mxCell>
                <mxCell id="jRfgWLA4sOFYj0J1e9Nx-2" value="C2" style="text;html=1;strokeColor=none;fillColor=none;align=center;verticalAlign=middle;whiteSpace=wrap;rounded=0;fontFamily=CMU;fontSource=https%3A%2F%2Ffonts.googleapis.com%2Fcss%3Ffamily%3DCMU;fontColor=#000000;" parent="1" vertex="1">
                    <mxGeometry x="360" y="70" width="17" height="18" as="geometry"/>
                </mxCell>
                <mxCell id="jRfgWLA4sOFYj0J1e9Nx-3" value="C3" style="text;html=1;strokeColor=none;fillColor=none;align=center;verticalAlign=middle;whiteSpace=wrap;rounded=0;fontFamily=CMU;fontSource=https%3A%2F%2Ffonts.googleapis.com%2Fcss%3Ffamily%3DCMU;fontColor=#000000;" parent="1" vertex="1">
                    <mxGeometry x="480" y="70" width="17" height="18" as="geometry"/>
                </mxCell>
                <mxCell id="jRfgWLA4sOFYj0J1e9Nx-4" value="C4" style="text;html=1;strokeColor=none;fillColor=none;align=center;verticalAlign=middle;whiteSpace=wrap;rounded=0;fontFamily=CMU;fontSource=https%3A%2F%2Ffonts.googleapis.com%2Fcss%3Ffamily%3DCMU;fontColor=#000000;" parent="1" vertex="1">
                    <mxGeometry x="600" y="70" width="17" height="18" as="geometry"/>
                </mxCell>
                <mxCell id="jRfgWLA4sOFYj0J1e9Nx-5" value="C5" style="text;html=1;strokeColor=none;fillColor=none;align=center;verticalAlign=middle;whiteSpace=wrap;rounded=0;fontFamily=CMU;fontSource=https%3A%2F%2Ffonts.googleapis.com%2Fcss%3Ffamily%3DCMU;fontColor=#000000;" parent="1" vertex="1">
                    <mxGeometry x="720" y="70" width="17" height="18" as="geometry"/>
                </mxCell>
                <mxCell id="jRfgWLA4sOFYj0J1e9Nx-6" value="C6" style="text;html=1;strokeColor=none;fillColor=none;align=center;verticalAlign=middle;whiteSpace=wrap;rounded=0;fontFamily=CMU;fontSource=https%3A%2F%2Ffonts.googleapis.com%2Fcss%3Ffamily%3DCMU;fontColor=#000000;" parent="1" vertex="1">
                    <mxGeometry x="845" y="70" width="17" height="18" as="geometry"/>
                </mxCell>
                <mxCell id="jRfgWLA4sOFYj0J1e9Nx-7" value="C7" style="text;html=1;strokeColor=none;fillColor=none;align=center;verticalAlign=middle;whiteSpace=wrap;rounded=0;fontFamily=CMU;fontSource=https%3A%2F%2Ffonts.googleapis.com%2Fcss%3Ffamily%3DCMU;fontColor=#000000;" parent="1" vertex="1">
                    <mxGeometry x="965" y="70" width="17" height="18" as="geometry"/>
                </mxCell>
                <mxCell id="jRfgWLA4sOFYj0J1e9Nx-9" style="edgeStyle=elbowEdgeStyle;elbow=vertical;html=1;exitX=0.1;exitY=0.5;exitDx=0;exitDy=0;exitPerimeter=0;entryX=0.25;entryY=0;entryDx=0;entryDy=0;strokeColor=#000000;fontFamily=CMU;fontSource=https%3A%2F%2Ffonts.googleapis.com%2Fcss%3Ffamily%3DCMU;fontColor=#000000;endArrow=none;endFill=0;" parent="1" source="jRfgWLA4sOFYj0J1e9Nx-10" edge="1">
                    <mxGeometry relative="1" as="geometry">
                        <mxPoint x="1085" y="99.5" as="targetPoint"/>
                        <Array as="points">
                            <mxPoint x="1085.5" y="100"/>
                        </Array>
                    </mxGeometry>
                </mxCell>
                <mxCell id="jRfgWLA4sOFYj0J1e9Nx-10" value="" style="verticalLabelPosition=bottom;shadow=0;dashed=0;align=center;html=1;verticalAlign=top;shape=mxgraph.electrical.logic_gates.inverting_contact;strokeColor=#000000;fontFamily=CMU;fontSource=https%3A%2F%2Ffonts.googleapis.com%2Fcss%3Ffamily%3DCMU;fontColor=#000000;fillColor=#FFFFFF;portConstraintRotation=0;rotation=-90;" parent="1" vertex="1">
                    <mxGeometry x="1080" y="49.5" width="10" height="10" as="geometry"/>
                </mxCell>
                <mxCell id="jRfgWLA4sOFYj0J1e9Nx-11" value="C8" style="text;html=1;strokeColor=none;fillColor=none;align=center;verticalAlign=middle;whiteSpace=wrap;rounded=0;fontFamily=CMU;fontSource=https%3A%2F%2Ffonts.googleapis.com%2Fcss%3Ffamily%3DCMU;fontColor=#000000;" parent="1" vertex="1">
                    <mxGeometry x="1076.5" y="31.5" width="17" height="18" as="geometry"/>
                </mxCell>
            </root>
        </mxGraphModel>
    </diagram>
    <diagram id="bwloS-dCB4o8p7z9fVSq" name="Overflow">
        <mxGraphModel dx="947" dy="364" grid="0" gridSize="1" guides="1" tooltips="1" connect="1" arrows="1" fold="1" page="1" pageScale="1" pageWidth="1169" pageHeight="827" background="#ffffff" math="0" shadow="0">
            <root>
                <mxCell id="0"/>
                <mxCell id="1" parent="0"/>
                <mxCell id="upBPm37hRv08PSEdnoDb-1" value="A8" style="text;html=1;strokeColor=none;fillColor=none;align=right;verticalAlign=middle;whiteSpace=wrap;rounded=0;fontColor=#000000;fontFamily=CMU;fontSource=https%3A%2F%2Ffonts.googleapis.com%2Fcss%3Ffamily%3DCMU;" parent="1" vertex="1">
                    <mxGeometry x="125" y="45" width="60" height="30" as="geometry"/>
                </mxCell>
                <mxCell id="upBPm37hRv08PSEdnoDb-2" value="B8" style="text;html=1;strokeColor=none;fillColor=none;align=right;verticalAlign=middle;whiteSpace=wrap;rounded=0;fontColor=#000000;fontFamily=CMU;fontSource=https%3A%2F%2Ffonts.googleapis.com%2Fcss%3Ffamily%3DCMU;" parent="1" vertex="1">
                    <mxGeometry x="125" y="77.5" width="60" height="25" as="geometry"/>
                </mxCell>
                <mxCell id="RBZaPQ8LTwgEr3Mg14l7-3" style="edgeStyle=elbowEdgeStyle;html=1;exitX=0.9;exitY=0.5;exitDx=0;exitDy=0;exitPerimeter=0;entryX=0;entryY=0.25;entryDx=0;entryDy=0;entryPerimeter=0;strokeColor=#000000;endArrow=none;endFill=0;" edge="1" parent="1" source="upBPm37hRv08PSEdnoDb-3" target="gfur1mWnqEJK3H5xDJ5c-1">
                    <mxGeometry relative="1" as="geometry"/>
                </mxCell>
                <mxCell id="upBPm37hRv08PSEdnoDb-3" value="" style="verticalLabelPosition=bottom;shadow=0;dashed=0;align=center;html=1;verticalAlign=top;shape=mxgraph.electrical.logic_gates.inverting_contact;fillColor=#FFFFFF;strokeColor=#000000;" parent="1" vertex="1">
                    <mxGeometry x="190" y="55" width="10" height="10" as="geometry"/>
                </mxCell>
                <mxCell id="RBZaPQ8LTwgEr3Mg14l7-4" style="edgeStyle=elbowEdgeStyle;html=1;exitX=0.9;exitY=0.5;exitDx=0;exitDy=0;exitPerimeter=0;entryX=0;entryY=0.75;entryDx=0;entryDy=0;entryPerimeter=0;strokeColor=#000000;endArrow=none;endFill=0;" edge="1" parent="1" source="upBPm37hRv08PSEdnoDb-4" target="gfur1mWnqEJK3H5xDJ5c-1">
                    <mxGeometry relative="1" as="geometry"/>
                </mxCell>
                <mxCell id="upBPm37hRv08PSEdnoDb-4" value="" style="verticalLabelPosition=bottom;shadow=0;dashed=0;align=center;html=1;verticalAlign=top;shape=mxgraph.electrical.logic_gates.inverting_contact;fillColor=#FFFFFF;strokeColor=#000000;" parent="1" vertex="1">
                    <mxGeometry x="190" y="85" width="10" height="10" as="geometry"/>
                </mxCell>
                <mxCell id="RBZaPQ8LTwgEr3Mg14l7-5" style="edgeStyle=elbowEdgeStyle;html=1;exitX=1;exitY=0.5;exitDx=0;exitDy=0;exitPerimeter=0;entryX=0;entryY=0.5;entryDx=0;entryDy=0;entryPerimeter=0;strokeColor=#000000;endArrow=none;endFill=0;" edge="1" parent="1" source="gfur1mWnqEJK3H5xDJ5c-1" target="gfur1mWnqEJK3H5xDJ5c-3">
                    <mxGeometry relative="1" as="geometry"/>
                </mxCell>
                <mxCell id="gfur1mWnqEJK3H5xDJ5c-1" value="" style="verticalLabelPosition=bottom;shadow=0;dashed=0;align=center;html=1;verticalAlign=top;shape=mxgraph.electrical.logic_gates.logic_gate;operation=xor;fillColor=none;strokeColor=#000000;" vertex="1" parent="1">
                    <mxGeometry x="300" y="45" width="100" height="60" as="geometry"/>
                </mxCell>
                <mxCell id="RBZaPQ8LTwgEr3Mg14l7-8" style="edgeStyle=elbowEdgeStyle;html=1;exitX=0;exitY=0.25;exitDx=0;exitDy=0;exitPerimeter=0;entryX=1;entryY=0.5;entryDx=0;entryDy=0;entryPerimeter=0;strokeColor=#000000;endArrow=none;endFill=0;" edge="1" parent="1" source="gfur1mWnqEJK3H5xDJ5c-2" target="gfur1mWnqEJK3H5xDJ5c-1">
                    <mxGeometry relative="1" as="geometry">
                        <Array as="points">
                            <mxPoint x="410" y="120"/>
                        </Array>
                    </mxGeometry>
                </mxCell>
                <mxCell id="RBZaPQ8LTwgEr3Mg14l7-11" style="edgeStyle=elbowEdgeStyle;html=1;exitX=0;exitY=0.75;exitDx=0;exitDy=0;exitPerimeter=0;entryX=0.9;entryY=0.5;entryDx=0;entryDy=0;entryPerimeter=0;strokeColor=#000000;endArrow=none;endFill=0;" edge="1" parent="1" source="gfur1mWnqEJK3H5xDJ5c-2" target="RBZaPQ8LTwgEr3Mg14l7-10">
                    <mxGeometry relative="1" as="geometry"/>
                </mxCell>
                <mxCell id="RBZaPQ8LTwgEr3Mg14l7-12" style="edgeStyle=elbowEdgeStyle;html=1;exitX=1;exitY=0.5;exitDx=0;exitDy=0;exitPerimeter=0;entryX=0;entryY=0.75;entryDx=0;entryDy=0;entryPerimeter=0;strokeColor=#000000;endArrow=none;endFill=0;" edge="1" parent="1" source="gfur1mWnqEJK3H5xDJ5c-2" target="RBZaPQ8LTwgEr3Mg14l7-1">
                    <mxGeometry relative="1" as="geometry"/>
                </mxCell>
                <mxCell id="gfur1mWnqEJK3H5xDJ5c-2" value="" style="verticalLabelPosition=bottom;shadow=0;dashed=0;align=center;html=1;verticalAlign=top;shape=mxgraph.electrical.logic_gates.logic_gate;operation=and;strokeColor=#000000;fillColor=none;" vertex="1" parent="1">
                    <mxGeometry x="550" y="175" width="100" height="60" as="geometry"/>
                </mxCell>
                <mxCell id="RBZaPQ8LTwgEr3Mg14l7-6" style="edgeStyle=elbowEdgeStyle;html=1;exitX=1;exitY=0.5;exitDx=0;exitDy=0;exitPerimeter=0;entryX=0;entryY=0.25;entryDx=0;entryDy=0;entryPerimeter=0;strokeColor=#000000;endArrow=none;endFill=0;" edge="1" parent="1" source="gfur1mWnqEJK3H5xDJ5c-3" target="gfur1mWnqEJK3H5xDJ5c-4">
                    <mxGeometry relative="1" as="geometry"/>
                </mxCell>
                <mxCell id="gfur1mWnqEJK3H5xDJ5c-3" value="" style="verticalLabelPosition=bottom;shadow=0;dashed=0;align=center;html=1;verticalAlign=top;shape=mxgraph.electrical.logic_gates.inverter_2;strokeColor=#000000;fillColor=none;" vertex="1" parent="1">
                    <mxGeometry x="420" y="45" width="100" height="60" as="geometry"/>
                </mxCell>
                <mxCell id="RBZaPQ8LTwgEr3Mg14l7-7" style="edgeStyle=elbowEdgeStyle;html=1;exitX=0;exitY=0.75;exitDx=0;exitDy=0;exitPerimeter=0;strokeColor=#000000;endArrow=none;endFill=0;entryX=0.9;entryY=0.5;entryDx=0;entryDy=0;entryPerimeter=0;" edge="1" parent="1" source="gfur1mWnqEJK3H5xDJ5c-4" target="upBPm37hRv08PSEdnoDb-4">
                    <mxGeometry relative="1" as="geometry">
                        <mxPoint x="310" y="130" as="targetPoint"/>
                        <Array as="points">
                            <mxPoint x="270" y="120"/>
                        </Array>
                    </mxGeometry>
                </mxCell>
                <mxCell id="RBZaPQ8LTwgEr3Mg14l7-13" style="edgeStyle=elbowEdgeStyle;html=1;exitX=1;exitY=0.5;exitDx=0;exitDy=0;exitPerimeter=0;entryX=0;entryY=0.25;entryDx=0;entryDy=0;entryPerimeter=0;strokeColor=#000000;endArrow=none;endFill=0;" edge="1" parent="1" source="gfur1mWnqEJK3H5xDJ5c-4" target="RBZaPQ8LTwgEr3Mg14l7-1">
                    <mxGeometry relative="1" as="geometry"/>
                </mxCell>
                <mxCell id="gfur1mWnqEJK3H5xDJ5c-4" value="" style="verticalLabelPosition=bottom;shadow=0;dashed=0;align=center;html=1;verticalAlign=top;shape=mxgraph.electrical.logic_gates.logic_gate;operation=and;strokeColor=#000000;fillColor=none;" vertex="1" parent="1">
                    <mxGeometry x="550" y="95" width="100" height="60" as="geometry"/>
                </mxCell>
                <mxCell id="RBZaPQ8LTwgEr3Mg14l7-15" style="edgeStyle=elbowEdgeStyle;html=1;exitX=1;exitY=0.5;exitDx=0;exitDy=0;exitPerimeter=0;entryX=0.1;entryY=0.5;entryDx=0;entryDy=0;entryPerimeter=0;strokeColor=#000000;endArrow=none;endFill=0;" edge="1" parent="1" source="RBZaPQ8LTwgEr3Mg14l7-1" target="RBZaPQ8LTwgEr3Mg14l7-14">
                    <mxGeometry relative="1" as="geometry"/>
                </mxCell>
                <mxCell id="RBZaPQ8LTwgEr3Mg14l7-1" value="" style="verticalLabelPosition=bottom;shadow=0;dashed=0;align=center;html=1;verticalAlign=top;shape=mxgraph.electrical.logic_gates.logic_gate;operation=or;strokeColor=#000000;fillColor=none;" vertex="1" parent="1">
                    <mxGeometry x="710" y="134" width="100" height="60" as="geometry"/>
                </mxCell>
                <mxCell id="RBZaPQ8LTwgEr3Mg14l7-9" value="S8" style="text;html=1;strokeColor=none;fillColor=none;align=right;verticalAlign=middle;whiteSpace=wrap;rounded=0;fontColor=#000000;fontFamily=CMU;fontSource=https%3A%2F%2Ffonts.googleapis.com%2Fcss%3Ffamily%3DCMU;" vertex="1" parent="1">
                    <mxGeometry x="125" y="208" width="60" height="25" as="geometry"/>
                </mxCell>
                <mxCell id="RBZaPQ8LTwgEr3Mg14l7-10" value="" style="verticalLabelPosition=bottom;shadow=0;dashed=0;align=center;html=1;verticalAlign=top;shape=mxgraph.electrical.logic_gates.inverting_contact;fillColor=#FFFFFF;strokeColor=#000000;" vertex="1" parent="1">
                    <mxGeometry x="190" y="215.5" width="10" height="10" as="geometry"/>
                </mxCell>
                <mxCell id="RBZaPQ8LTwgEr3Mg14l7-14" value="" style="verticalLabelPosition=bottom;shadow=0;dashed=0;align=center;html=1;verticalAlign=top;shape=mxgraph.electrical.logic_gates.inverting_contact;fillColor=#FFFFFF;strokeColor=#000000;" vertex="1" parent="1">
                    <mxGeometry x="826" y="159" width="10" height="10" as="geometry"/>
                </mxCell>
                <mxCell id="RBZaPQ8LTwgEr3Mg14l7-16" value="S9" style="text;html=1;strokeColor=none;fillColor=none;align=left;verticalAlign=middle;whiteSpace=wrap;rounded=0;fontColor=#000000;fontFamily=CMU;fontSource=https%3A%2F%2Ffonts.googleapis.com%2Fcss%3Ffamily%3DCMU;" vertex="1" parent="1">
                    <mxGeometry x="841" y="151.5" width="60" height="25" as="geometry"/>
                </mxCell>
                <mxCell id="RBZaPQ8LTwgEr3Mg14l7-17" value="&lt;font data-font-src=&quot;https://fonts.googleapis.com/css?family=CMU&quot; face=&quot;CMU&quot; color=&quot;#000000&quot;&gt;XOR&lt;/font&gt;" style="text;html=1;strokeColor=none;fillColor=none;align=center;verticalAlign=middle;whiteSpace=wrap;rounded=0;" vertex="1" parent="1">
                    <mxGeometry x="320" y="60" width="60" height="30" as="geometry"/>
                </mxCell>
                <mxCell id="lrSb-56ReevARNnkfBAV-1" value="&lt;font data-font-src=&quot;https://fonts.googleapis.com/css?family=CMU&quot; face=&quot;CMU&quot; color=&quot;#000000&quot;&gt;NOT&lt;/font&gt;" style="text;html=1;strokeColor=none;fillColor=none;align=center;verticalAlign=middle;whiteSpace=wrap;rounded=0;" vertex="1" parent="1">
                    <mxGeometry x="433" y="60" width="60" height="30" as="geometry"/>
                </mxCell>
                <mxCell id="lrSb-56ReevARNnkfBAV-2" value="&lt;font data-font-src=&quot;https://fonts.googleapis.com/css?family=CMU&quot; face=&quot;CMU&quot; color=&quot;#000000&quot;&gt;AND&lt;/font&gt;" style="text;html=1;strokeColor=none;fillColor=none;align=center;verticalAlign=middle;whiteSpace=wrap;rounded=0;" vertex="1" parent="1">
                    <mxGeometry x="570" y="110" width="60" height="30" as="geometry"/>
                </mxCell>
                <mxCell id="lrSb-56ReevARNnkfBAV-3" value="&lt;font data-font-src=&quot;https://fonts.googleapis.com/css?family=CMU&quot; face=&quot;CMU&quot; color=&quot;#000000&quot;&gt;AND&lt;/font&gt;" style="text;html=1;strokeColor=none;fillColor=none;align=center;verticalAlign=middle;whiteSpace=wrap;rounded=0;" vertex="1" parent="1">
                    <mxGeometry x="570" y="190" width="60" height="30" as="geometry"/>
                </mxCell>
                <mxCell id="lrSb-56ReevARNnkfBAV-4" value="&lt;font data-font-src=&quot;https://fonts.googleapis.com/css?family=CMU&quot; face=&quot;CMU&quot; color=&quot;#000000&quot;&gt;OR&lt;/font&gt;" style="text;html=1;strokeColor=none;fillColor=none;align=center;verticalAlign=middle;whiteSpace=wrap;rounded=0;" vertex="1" parent="1">
                    <mxGeometry x="730" y="149" width="60" height="30" as="geometry"/>
                </mxCell>
            </root>
        </mxGraphModel>
    </diagram>
</mxfile>